<?xml version="1.0" encoding="UTF-8"?>
<svg id="Layer_1" data-name="Layer 1" xmlns="http://www.w3.org/2000/svg" viewBox="0 0 262 234.35">
  <defs>
    <style>
      .cls-1 {
        stroke: #000;
        stroke-miterlimit: 10;
        stroke-width: 12px;
      }
    </style>
  </defs>
  <path class="cls-1" d="m253.01,195.28L150.09,17.02c-3.99-6.9-11.12-11.02-19.09-11.02-1,0-1.98.06-2.95.19-6.76.88-12.66,4.79-16.15,10.83L8.99,195.28c-1.99,3.45-2.99,7.24-2.99,11.02s1,7.57,2.99,11.02c3.99,6.9,11.12,11.02,19.09,11.02h205.83c7.97,0,15.11-4.12,19.09-11.02,1.99-3.45,2.99-7.24,2.99-11.02s-1-7.57-2.99-11.02Zm-1.31,21.29c-3.71,6.43-10.36,10.27-17.79,10.27H28.08c-7.43,0-14.08-3.84-17.79-10.27-1.86-3.22-2.78-6.74-2.78-10.27s.93-7.05,2.78-10.27L113.21,17.78c3.71-6.43,10.36-10.27,17.79-10.27s14.08,3.84,17.79,10.27l102.92,178.26c1.86,3.22,2.78,6.74,2.78,10.27s-.93,7.05-2.78,10.27Zm-134.75-14.5h28.09v-27.2h-28.09v27.2Zm1.51-25.69h25.07v24.18h-25.07v-24.18Zm-2.13-72.43l7.46,61.85h14.58l7.28-61.76v-34.06s-29.33,0-29.33,0v33.97Zm1.51-32.46h26.31v32.41l-7.12,60.39h-11.91l-7.29-60.39v-32.41Z"/>
</svg>