<?xml version="1.0" encoding="UTF-8"?>
<svg id="Layer_1" data-name="Layer 1" xmlns="http://www.w3.org/2000/svg" viewBox="0 0 250 235.31">
  <defs>
    <style>
      .cls-1 {
        stroke-width: 0px;
      }
    </style>
  </defs>
  <path class="cls-1" d="m150.68,191.4l-26.48,26.18-26.39-26.69-15.39-15.58c-3.22-1.95-6.45-3.89-9.77-5.74l-4.98-2.77c-1.71-.88-3.37-1.8-5.11-2.64.82,1.75,1.73,3.43,2.59,5.14l2.71,5.02c1.81,3.34,3.72,6.59,5.63,9.83l15.41,15.56,30.8,31.14,4.41,4.46,4.46-4.41,30.93-30.59c5.17-5.08,10.27-10.23,15.5-15.26,3.9-6.37,7.67-12.87,11.02-19.79-6.96,3.28-13.49,6.98-19.91,10.8-5.08,5.17-10.29,10.22-15.43,15.33Z"/>
  <path class="cls-1" d="m72.8,12.18c3.3-1.82,6.59-3.64,9.86-5.59l4.89-2.93c1.61-1.04,3.24-2.02,4.85-3.11-1.93-.16-3.83-.22-5.75-.33l-5.7-.16c-3.8-.1-7.57-.07-11.33-.04l-21.18,5.57L6.06,16.69l-6.06,1.59,1.59,6.06,11.02,42.08c1.81,7.02,3.73,14.01,5.46,21.05,3.57,6.56,7.31,13.08,11.62,19.44.64-7.66.7-15.17.6-22.64-1.94-6.99-3.7-14.02-5.56-21.03L15.3,27.23l36.31-9.51,21.19-5.53Z"/>
  <path class="cls-1" d="m243.96,17.67l-41.96-11.49c-6.99-1.94-14-3.78-20.96-5.8-7.47-.19-14.98-.21-22.65.35,6.32,4.39,12.79,8.2,19.31,11.84,7.02,1.81,13.99,3.8,20.99,5.7l35.91,9.84-9.92,36.2-5.8,21.12c-.08,3.76-.14,7.53-.09,11.33l.09,5.7c.09,1.92.13,3.82.27,5.75,1.11-1.59,2.1-3.21,3.16-4.81l2.99-4.86c1.99-3.24,3.85-6.51,5.7-9.79l5.77-21.13,11.57-42.24,1.66-6.04-6.04-1.66Z"/>
</svg>