<?xml version="1.0" encoding="UTF-8"?>
<svg id="Layer_1" data-name="Layer 1" xmlns="http://www.w3.org/2000/svg" viewBox="0 0 250 45.73">
  <defs>
    <style>
      .cls-1 {
        stroke-width: 0px;
      }
    </style>
  </defs>
  <path class="cls-1" d="m21.1,45.73H0L66.67,0h21.1L21.1,45.73Zm-10.35-3.33h9.31L77.02,3.33h-9.31L10.76,42.39Z"/>
  <path class="cls-1" d="m48.14,45.73h-21.1L93.71,0h21.1L48.14,45.73Zm-10.35-3.33h9.31L104.05,3.33h-9.31l-56.95,39.06Z"/>
  <path class="cls-1" d="m75.18,45.73h-21.1L120.75,0h21.1l-66.67,45.73Zm-10.35-3.33h9.31L131.09,3.33h-9.31l-56.95,39.06Z"/>
  <path class="cls-1" d="m102.22,45.73h-21.1L147.78,0h21.1l-66.67,45.73Zm-10.35-3.33h9.31L158.13,3.33h-9.31l-56.95,39.06Z"/>
  <path class="cls-1" d="m129.25,45.73h-21.1L174.82,0h21.1l-66.67,45.73Zm-10.35-3.33h9.31L185.17,3.33h-9.31l-56.95,39.06Z"/>
  <path class="cls-1" d="m156.29,45.73h-21.1L201.86,0h21.1l-66.67,45.73Zm-10.35-3.33h9.31L212.21,3.33h-9.31l-56.95,39.06Z"/>
  <path class="cls-1" d="m183.33,45.73h-21.1L228.9,0h21.1l-66.67,45.73Zm-10.35-3.33h9.31L239.24,3.33h-9.31l-56.95,39.06Z"/>
</svg>