<?xml version="1.0" encoding="UTF-8"?>
<svg id="Layer_1" data-name="Layer 1" xmlns="http://www.w3.org/2000/svg" viewBox="0 0 250 51.76">
  <defs>
    <style>
      .cls-1 {
        stroke-width: 0px;
      }
    </style>
  </defs>
  <polygon class="cls-1" points="33.31 0 20.76 18.65 22.28 18.65 0 51.76 1.54 51.76 36.37 0 33.31 0"/>
  <polygon class="cls-1" points="43.48 0 30.93 18.65 32.45 18.65 10.17 51.76 11.71 51.76 46.55 0 43.48 0"/>
  <polygon class="cls-1" points="53.66 0 41.1 18.65 42.63 18.65 20.35 51.76 21.89 51.76 56.72 0 53.66 0"/>
  <polygon class="cls-1" points="63.83 0 51.28 18.65 52.8 18.65 30.52 51.76 32.06 51.76 66.89 0 63.83 0"/>
  <polygon class="cls-1" points="74 0 61.45 18.65 62.97 18.65 40.69 51.76 42.23 51.76 77.06 0 74 0"/>
  <polygon class="cls-1" points="84.17 0 71.62 18.65 73.14 18.65 50.86 51.76 52.4 51.76 87.24 0 84.17 0"/>
  <polygon class="cls-1" points="94.35 0 81.79 18.65 83.32 18.65 61.04 51.76 62.58 51.76 97.41 0 94.35 0"/>
  <polygon class="cls-1" points="104.52 0 91.97 18.65 93.49 18.65 71.21 51.76 72.75 51.76 107.58 0 104.52 0"/>
  <polygon class="cls-1" points="114.69 0 102.14 18.65 103.66 18.65 81.38 51.76 82.92 51.76 117.76 0 114.69 0"/>
  <polygon class="cls-1" points="124.86 0 112.31 18.65 113.83 18.65 91.55 51.76 93.1 51.76 127.93 0 124.86 0"/>
  <polygon class="cls-1" points="135.04 0 122.48 18.65 124.01 18.65 101.73 51.76 103.27 51.76 138.1 0 135.04 0"/>
  <polygon class="cls-1" points="145.21 0 132.66 18.65 134.18 18.65 111.9 51.76 113.44 51.76 148.27 0 145.21 0"/>
  <polygon class="cls-1" points="155.38 0 142.83 18.65 144.35 18.65 122.07 51.76 123.61 51.76 158.45 0 155.38 0"/>
  <polygon class="cls-1" points="165.55 0 153 18.65 154.52 18.65 132.24 51.76 133.79 51.76 168.62 0 165.55 0"/>
  <polygon class="cls-1" points="175.73 0 163.17 18.65 164.7 18.65 142.42 51.76 143.96 51.76 178.79 0 175.73 0"/>
  <polygon class="cls-1" points="185.9 0 173.35 18.65 174.87 18.65 152.59 51.76 154.13 51.76 188.96 0 185.9 0"/>
  <polygon class="cls-1" points="196.07 0 183.52 18.65 185.04 18.65 162.76 51.76 164.3 51.76 199.14 0 196.07 0"/>
  <polygon class="cls-1" points="206.25 0 193.69 18.65 195.22 18.65 172.94 51.76 174.48 51.76 209.31 0 206.25 0"/>
  <polygon class="cls-1" points="216.42 0 203.87 18.65 205.39 18.65 183.11 51.76 184.65 51.76 219.48 0 216.42 0"/>
  <polygon class="cls-1" points="226.59 0 214.04 18.65 215.56 18.65 193.28 51.76 194.82 51.76 229.65 0 226.59 0"/>
  <polygon class="cls-1" points="236.76 0 224.21 18.65 225.73 18.65 203.45 51.76 204.99 51.76 239.83 0 236.76 0"/>
  <polygon class="cls-1" points="246.94 0 234.38 18.65 235.91 18.65 213.63 51.76 215.17 51.76 250 0 246.94 0"/>
</svg>