<?xml version="1.0" encoding="UTF-8"?>
<svg id="Layer_1" data-name="Layer 1" xmlns="http://www.w3.org/2000/svg" viewBox="0 0 163.89 251">
  <defs>
    <style>
      .cls-1 {
        stroke: #000;
        stroke-miterlimit: 10;
      }
    </style>
  </defs>
  <path class="cls-1" d="m74.75.5v250h88.64V.5h-88.64Zm87.89,6.98h-3.43V1.26h3.43v6.22Zm-28.23,228.78c.01.09.03.21.03.28h0c-.16.02-.48.06-.88.12-1.21.17-3.22.46-4.24.46-1.38,0-1.71,0-3.7.37l-.31.06c-1.91.36-3.02.51-3.67-.41-.85-1.2-1.66-4.29-1.53-5.33.13-1.07.16-2,.07-2.84-.05-.52,1.18-3.69,1.71-4.89.18-.4.16-.97.14-1.63-.02-.61-.04-1.31.1-1.92.2-.91.03-4.66-.18-8.74-.06-1.16-.11-2.08-.11-2.38,0-.33-.1-1.36-.26-2.92-.38-3.81-1.01-10.18-.91-13.99.05-1.79.1-3.33.14-4.61.08-2.65.13-4.11.08-4.66-.03-.37-.02-1.52,0-2.74.02-1.36.04-2.76,0-3.56-.08-1.64-.36-11.11-.29-12.38.03-.57-.06-3.49-.19-7.2-.16-4.95-.36-11.11-.32-13.66.05-3.31-.27-7.28-.79-7.65l-.19-.12-.07.03-.07-.02-.16.12c-.52.37-.84,4.34-.79,7.65.04,2.56-.16,8.71-.32,13.66-.12,3.71-.22,6.63-.19,7.2.07,1.27-.21,10.75-.29,12.38-.04.79-.02,2.2,0,3.56.02,1.22.03,2.38,0,2.74-.05.56,0,2.01.08,4.66.04,1.28.09,2.81.14,4.61.1,3.82-.53,10.19-.91,13.99-.15,1.56-.26,2.59-.26,2.92,0,.3-.05,1.22-.11,2.38-.21,4.09-.38,7.83-.18,8.74.14.62.12,1.31.1,1.92-.02.66-.04,1.23.14,1.63.53,1.2,1.77,4.38,1.71,4.89-.08.84-.06,1.77.07,2.84.13,1.04-.68,4.13-1.53,5.33-.65.92-1.77.77-3.67.41l-.31-.06c-2-.37-2.32-.37-3.7-.37-1.01,0-3.03-.29-4.24-.46-.37-.05-.67-.09-.89-.12,0-.07.02-.19.03-.27.04-.26.08-.61.02-1.01-.06-.35.78-.8,1.23-1.04.31-.17.56-.3.7-.45.22-.22.91-1.12,2.02-2.58.63-.83,1.27-1.68,1.72-2.24,1.02-1.29.94-3.68.89-4.96,0-.2-.01-.37-.01-.51,0-.56-.46-1.99-1.11-3.95-.34-1.02-.69-2.07-.71-2.34-.08-.79-2.47-9.29-4.15-15.03-1.78-6.08-.71-13.74-.14-15.7.65-2.23.83-7.02.59-8.73-.22-1.61-.35-6.42-.15-7.35.13-.59-.01-1.62-.18-2.82-.14-1.02-.28-2.07-.25-2.84.06-1.48-1.38-7.68-3.56-17.07l-1.1-4.76c-2.35-10.17-.91-21.18-.22-26.47.09-.71.17-1.31.22-1.78.16-1.45.38-3,.59-4.5.41-2.92.65-4.74.52-5.36-.18-.85-.29-1.36.29-5,.4-2.49.08-5.41-.18-7.75-.12-1.13-.24-2.19-.25-3.01-.05-2.62-2.68-7.31-3.2-7.7-.19-.14-.42-.16-.63-.06-.59.29-.89,1.55-.89,2.63,0,1.34-1,7.26-1.1,7.88-.17.38-.66,2.01-.4,7.93.29,6.62-.76,14.62-.77,14.7-.08.53-1.84,13.02-1.84,14.44,0,1.59,1.64,4.09,3.51,5.35,1.63,1.1,2.01,3.69,2.02,3.75.16.68.29,1.83.06,2.17-.28.41-.53,1.34-.83,2.5-.08.33-.18.73-.23.87-.13.11-.44.36-.65.51l-.09.1c-.74,1.14-1.69,2.47-1.9,2.61-.38.14-.76.22-.91.23-.02-.01-.07-.07-.1-.12-.05-.06-.09-.12-.14-.17-.11-.11-.22-.16-2.45-.8-.96-.28-2.24-.65-2.55-.77-.22-.37-.97-2.28-1.61-4.02.02-.22.07-.89.19-1.94.05-.42.11-.9.18-1.39.15-1.08.31-2.2.31-3.01,0-.65-.26-2.21-.54-3.86-.24-1.45-.49-2.95-.58-3.92-.19-2.08-.82-12.35-1.01-17.32-.19-4.71.69-11.02,1.11-14.06l.05-.36c.1-.7.18-1.15.24-1.5.2-1.09.25-1.35.1-5.05-.17-4.4.33-10.99.49-13.16l.04-.55c.03-.38.14-.72.29-1.15.33-.98.79-2.33.58-5.3-.3-4.28.9-7.94,2.16-11.82,1.29-3.97,6.79-5.95,7.67-6.04,1.04-.1,3.95-.54,4.98-1.05.89-.44,4.7-1.99,5.2-2.19.49-.04,3.56-.4,4.74-2.3,1.17-1.9.26-4.27-.28-5.68l-.12-.32c-.34-.9-.4-2.34-.45-3.29-.02-.39-.03-.72-.06-.94-.1-.8-.85-3.21-.89-3.31l-.08-.24-.93-.07c-.21-.01-.37-.69-.48-1.13-.07-.3-.15-.61-.26-.9-.32-.88-.09-2.35.02-3.06,0-.05.02-.12.06-.13.13-.07.52.06.78.21l.84.48-.29-.92c-.22-.71-.27-3.16-.27-4.05,0-2.66.79-4.75,2.34-6.21,2.77-2.59,7.09-2.33,7.18-2.33.04,0,4.36-.26,7.13,2.33,1.56,1.45,2.34,3.54,2.34,6.21,0,.89-.05,3.34-.27,4.05l-.29.93.84-.49c.23-.13.64-.28.78-.21.03.02.05.08.06.13.11.71.34,2.17.02,3.06-.11.29-.18.6-.26.9-.11.44-.27,1.11-.48,1.13l-.93.07-.08.24c-.03.1-.79,2.51-.89,3.31-.03.22-.04.55-.06.94-.05.95-.11,2.39-.45,3.29l-.12.32c-.54,1.41-1.45,3.78-.28,5.68,1.17,1.91,4.25,2.26,4.74,2.3.5.2,4.31,1.75,5.2,2.19,1.02.51,3.94.96,4.98,1.05.87.08,6.38,2.07,7.67,6.04,1.26,3.88,2.46,7.54,2.16,11.82-.2,2.96.25,4.31.58,5.3.15.43.26.77.29,1.15l.04.55c.16,2.17.67,8.76.49,13.16-.15,3.7-.1,3.96.1,5.05.06.36.15.8.24,1.5l.05.36c.42,3.03,1.29,9.35,1.11,14.06-.19,4.96-.82,15.24-1.01,17.32-.09.97-.34,2.47-.58,3.92-.28,1.65-.54,3.22-.54,3.86,0,.81.15,1.93.31,3.01.07.49.13.97.18,1.39.12,1.05.17,1.72.19,1.94-.65,1.75-1.4,3.65-1.61,4.02-.31.13-1.6.5-2.55.77-2.23.64-2.34.69-2.45.8-.05.05-.1.11-.14.17-.03.04-.08.1-.07.11-.17,0-.55-.08-.9-.21-.24-.16-1.19-1.48-1.93-2.63l-.09-.1c-.21-.15-.52-.4-.65-.51-.05-.14-.15-.54-.23-.87-.29-1.17-.54-2.09-.83-2.5-.23-.33-.1-1.49.06-2.2,0-.03.39-2.61,2.02-3.71,1.87-1.26,3.51-3.76,3.51-5.35,0-1.41-1.77-13.91-1.84-14.43-.01-.08-1.06-8.09-.77-14.71.26-5.92-.24-7.55-.4-7.93-.1-.62-1.1-6.54-1.1-7.88,0-1.09-.31-2.34-.89-2.63-.21-.1-.44-.08-.63.06-.52.39-3.15,5.08-3.2,7.7-.02.82-.13,1.89-.25,3.01-.26,2.34-.57,5.26-.18,7.75.58,3.63.47,4.15.29,5-.13.61.11,2.43.52,5.36.21,1.5.43,3.05.59,4.5.05.47.13,1.07.22,1.78.69,5.29,2.14,16.31-.22,26.47l-1.1,4.76c-2.18,9.38-3.62,15.58-3.56,17.07.03.77-.11,1.82-.25,2.84-.16,1.19-.3,2.22-.18,2.82.2.93.07,5.74-.15,7.35-.23,1.71-.05,6.5.59,8.73.57,1.96,1.64,9.62-.14,15.7-1.68,5.75-4.08,14.25-4.15,15.03-.03.26-.38,1.32-.71,2.34-.65,1.96-1.11,3.38-1.11,3.95,0,.13,0,.31-.01.51-.04,1.28-.13,3.67.89,4.96.45.57,1.09,1.41,1.72,2.24,1.11,1.46,1.8,2.37,2.02,2.58.15.15.39.28.7.45.45.24,1.28.69,1.23,1.04-.07.39-.02.75.02,1.01Zm-16.19-43.81c-.05-1.8-.1-3.33-.14-4.61-.08-2.53-.13-4.06-.08-4.57.03-.28.03-.91.02-1.7h2.12c0,.79,0,1.41.02,1.7.05.51,0,2.04-.08,4.57-.04,1.28-.09,2.82-.14,4.61-.03,1.25,0,2.76.1,4.36h-1.91c.09-1.6.13-3.11.1-4.36Zm-.22-12c-.02-1.28-.04-2.74,0-3.51.05-1.06.25-7.3.29-10.59h1.57c.05,3.29.24,9.54.29,10.59.04.77.02,2.23,0,3.51,0,.13,0,.25,0,.37h-2.14c0-.12,0-.25,0-.37Zm.29-15.97c-.03-.53.07-3.59.19-7.14.06-1.75.12-3.66.17-5.5h.85c.05,1.84.12,3.75.17,5.5.12,3.54.22,6.6.19,7.13-.01.2-.01.59-.01,1.11h-1.55c0-.52,0-.91-.01-1.11Zm.51-20.83c-.04-2.44.1-4.38.26-5.62h.03c.16,1.24.3,3.18.26,5.62-.03,1.54.04,4.36.13,7.44h-.8c.09-3.08.15-5.9.13-7.44Zm-1.44,62.38c.23-2.36.54-5.51.72-8.45h1.99c.18,2.94.48,6.1.72,8.45v7.59h-3.43v-7.59Zm16.74-27.97c0-.07.01-.15.02-.21.22-1.59.38-6.52.14-7.61-.1-.47.05-1.53.19-2.56.06-.44.12-.89.17-1.33h2.91v14.48h-3.43v-2.77Zm6.17-37.5c.23.33.53,1.53.71,2.25.23.91.28,1.07.4,1.19.07.07.2.18.34.29v6.81h-3.43v-3.43l1.06-4.58c.27-1.15.49-2.32.66-3.48.02.37.09.71.26.95Zm-2.74,10.54h-.04c.01-.06.03-.12.04-.17v.17Zm0,.76v13.75h-2.85c.02-.32.03-.62.02-.89-.05-1.17,1.02-5.98,2.61-12.86h.22Zm.76,14.51h3.43v14.48h-3.43v-14.48Zm0-.76v-13.75h3.43v13.75h-3.43Zm4.19-13.75h3.43v13.75h-3.43v-13.75Zm0-.76v-5.94c.93,1.4,1.56,2.16,1.85,2.27.43.16.91.27,1.2.27.16,0,.28-.05.38-.12v3.52h-3.43Zm-2-26.22h1.25v9.47c-.84.98-1.24,2.23-1.41,2.93.47-4.37.4-8.67.16-12.4Zm-1.7-14.81c-.19-1.35-.38-2.72-.48-3.72v-1.63c.12-.62.16-1.22,0-2.64v-1.67h3.43v11.18h-2.74c-.07-.51-.14-1.02-.21-1.52Zm4.34-10.41h-.64v-9.2c.14.84.24,1.44.25,1.52l.04.12s.61,1.25.34,7.55Zm.78,14.88c.01.08.77,5.42,1.31,9.59h-2.72v-11.78h1.16c.14,1.33.25,2.16.25,2.19Zm1.84,14.33c0,1.19-1.39,3.52-3.18,4.72-.03.02-.05.04-.07.06v-8.77h2.82c.25,1.97.43,3.56.43,3.99Zm-3.25-17.28v-11.18h.61c-.12,4.01.21,8.38.48,11.18h-1.09Zm-4.08-22.55h3.33v10.61h-3.43v-9.03c.05-.57.09-1.1.1-1.57,0,0,0-.01,0-.02Zm3.33-.76h-3.24c.41-2.3,2.2-5.56,2.73-6.24.16.24.4.9.4,1.87,0,.29.04.78.11,1.37v2.99Zm0,24.06v11.78h-1.3c-.23-3.14-.58-5.84-.84-7.77-.09-.7-.17-1.3-.22-1.76-.08-.73-.18-1.48-.28-2.24h2.64Zm-7.02,73.92c-.3-1.04-.5-2.65-.59-4.23v-.45h3.43v15.24h-2.06c.31-4.69-.36-9.12-.78-10.56Zm3.59-4.68h3.43v15.24h-3.43v-15.24Zm4.19,0h3.43v15.24h-3.43v-15.24Zm0-.76v-14.48h3.43v14.48h-3.43Zm4.19-14.48h3.43v14.48h-3.43v-14.48Zm0-.76v-13.75h3.43v13.75h-3.43Zm0-14.51v-4c.45-.14,1.14-.34,1.74-.51.75-.22,1.29-.37,1.69-.49v5.01h-3.43Zm-8.37-112.02v-7.73h3.43v7.73h-3.43Zm3.43.76v8.15h-3.43v-8.15h3.43Zm-4.19-.76h-3.43v-7.73h3.43v7.73Zm-4.19,0h-3.43v-7.73h3.43v7.73Zm-4.32-7.08s.09-.02.13-.03v7.11h-1.81c.3-.99.37-2.27.42-3.24.02-.37.03-.67.06-.88.07-.59.59-2.3.78-2.93l.42-.03Zm.13,7.84v6.43c-.88-.28-1.85-.76-2.35-1.57-.94-1.52-.21-3.56.29-4.86h2.07Zm.76,0h3.43v7.74c-1.13-.47-2.13-.87-2.21-.91l-.11-.03s-.48-.04-1.1-.18v-6.63Zm4.19,8.06v-8.06h3.43v8.15h-3.21c-.07-.03-.15-.06-.22-.09Zm3.43.85v.53c-.46-.12-.85-.24-1.09-.36-.09-.05-.22-.11-.36-.17h1.46Zm.76,0h3.43v1.27c-.24-.07-.44-.11-.57-.12-.66-.06-1.82-.23-2.86-.45v-.7Zm4.19,0h3.43v3.32c-1.22-.85-2.48-1.44-3.43-1.79v-1.52Zm0-.76v-8.15h3.43v8.15h-3.43Zm0-8.91v-7.73h3.43v7.73h-3.43Zm0-8.48v-7.32h3.43v7.32h-3.43Zm-.76,0h-3.43v-7.32h3.43v7.32Zm-4.19,0h-3.43v-7.32h3.43v7.32Zm-4.19,0h-3.23c.03-.1.05-.2.08-.3.07-.28.14-.57.23-.82.35-.94.2-2.26.02-3.43-.07-.42-.3-.61-.48-.69-.01,0-.03,0-.05-.02v-2.05h3.43v7.32Zm16.64,27.49h.1v.31c-.03-.1-.06-.21-.1-.31Zm-.24-.76c-.1-.3-.19-.59-.29-.89-.51-1.55-1.58-2.82-2.8-3.81v-3.89h3.43v8.6h-.34Zm-3.09-9.35v-8.15h3.43v8.15h-3.43Zm0-8.91v-7.73h3.43v7.73h-3.43Zm0-8.48v-7.32h3.43v7.32h-3.43Zm0-8.08v-6.94h3.43v6.94h-3.43Zm-.76,0h-3.43v-6.94h3.43v6.94Zm-4.19,0h-3.43v-6.94h3.43v6.94Zm-4.19,0h-3.43v-6.94h3.43v6.94Zm-4.19,0h-3.43v-6.94h3.43v6.94Zm-4.19-2.87c-.28-1.61-.89-2.97-1.84-4.07h1.84v4.07Zm-31.28,120.91c.17-.24.24-.58.26-.95.18,1.17.4,2.33.66,3.48l1.06,4.58v3.43h-3.43v-6.81c.14-.11.27-.22.34-.29.12-.12.17-.28.4-1.19.18-.72.48-1.92.71-2.26Zm5.82,27.13c.14,1.03.29,2.09.19,2.55-.24,1.1-.08,6.03.14,7.61,0,.06.02.14.02.21v2.77h-3.43v-14.48h2.91c.05.44.11.88.17,1.33Zm-7.27-15.84h3.43v13.75h-3.43v-13.75Zm-.76,13.75h-3.43v-13.75h3.43v13.75Zm4.19.76v14.48h-3.43v-14.48h3.43Zm.76-.76v-13.75h.22c1.59,6.88,2.66,11.69,2.61,12.86-.01.27,0,.58.02.89h-2.85Zm0-14.51v-.17c.01.06.03.12.04.17h-.04Zm-4.94,0h-3.43v-3.52c.1.07.22.12.38.12.29,0,.77-.11,1.2-.27.29-.11.91-.87,1.85-2.27v5.94Zm-4.19,0h-3.43v-5.01c.41.12.94.28,1.69.5.6.17,1.29.37,1.74.51v4Zm0,.76v13.75h-3.43v-13.75h3.43Zm0,14.51v14.48h-3.43v-14.48h3.43Zm.76,0h3.43v14.48h-3.43v-14.48Zm3.43,15.23v15.24h-3.43v-15.24h3.43Zm.76,0h3.43v15.24h-3.43v-15.24Zm4.19,0h3.43v.45c-.1,1.58-.29,3.19-.59,4.23-.42,1.44-1.09,5.87-.78,10.56h-2.06v-15.24Zm-7.76-56.71h2.82v8.77s-.05-.04-.07-.06c-1.79-1.21-3.18-3.53-3.18-4.72,0-.43.18-2.02.43-3.99Zm1.65-12.53h1.16v11.78h-2.72c.54-4.16,1.29-9.5,1.31-9.59,0-.03.11-.85.25-2.19Zm.86-20.23l.05-.14c.01-.08.12-.68.25-1.52v9.2h-.64c-.27-6.3.31-7.51.33-7.54Zm4.49,12.6v1.63c-.1,1-.29,2.37-.48,3.72-.07.5-.14,1.01-.21,1.52h-2.74v-11.18h3.43v1.67c-.16,1.42-.12,2.01,0,2.64Zm-.79,7.63c-.1.76-.2,1.51-.28,2.24-.05.47-.13,1.06-.22,1.76-.25,1.94-.61,4.63-.84,7.77h-1.3v-11.78h2.64Zm.69-23.28c0,.46.05,1,.1,1.57v9.03h-3.43v-10.61h3.33s0,.01,0,.02Zm-3.33-.77v-2.99c.07-.59.11-1.08.11-1.37,0-.97.24-1.63.4-1.87.54.71,2.32,3.95,2.73,6.24h-3.24Zm-.76,12.12v11.18h-1.09c.27-2.8.59-7.17.48-11.18h.61Zm.76,24.47h1.25c-.25,3.73-.31,8.03.16,12.4-.17-.71-.57-1.96-1.41-2.93v-9.47Zm11.8-99.55s-.03,0-.05.02c-.18.09-.41.28-.48.69-.19,1.17-.33,2.5.02,3.43.09.25.16.54.23.82.02.1.05.2.08.3h-3.23v-7.32h3.43v2.05Zm.89,6.67l.42.03c.2.64.71,2.34.78,2.93.03.2.04.51.06.88.05.97.12,2.26.42,3.24h-1.81v-7.11s.08.02.13.03Zm-5.07,7.08h-3.43v-7.73h3.43v7.73Zm.76-7.73h3.43v7.73h-3.43v-7.73Zm-4.94,7.73h-3.43v-7.73h3.43v7.73Zm0,.76v8.15h-3.43v-8.15h3.43Zm-4.19,8.15h-3.43v-8.15h3.43v8.15Zm0,.76v1.52c-.95.35-2.21.94-3.43,1.79v-3.32h3.43Zm.76,0h3.43v.7c-1.04.21-2.2.39-2.86.45-.13.01-.33.05-.57.12v-1.27Zm4.19,0h1.46c-.14.07-.27.12-.36.17-.24.12-.63.24-1.09.36v-.53Zm0-.76v-8.15h3.43v8.06c-.07.03-.15.06-.22.09h-3.21Zm4.19-8.15h3.43v6.63c-.63.14-1.09.18-1.1.18l-.11.03c-.08.03-1.09.44-2.21.91v-7.74Zm4.19,0h2.07c.5,1.29,1.22,3.33.29,4.86-.5.81-1.47,1.29-2.35,1.57v-6.43Zm-4.94-9.24h-3.43v-7.32h3.43v7.32Zm-4.19,0h-3.43v-7.32h3.43v7.32Zm-4.19,0h-3.43v-7.32h3.43v7.32Zm0,.76v7.73h-3.43v-7.73h3.43Zm-4.19,7.73h-3.43v-7.73h3.43v7.73Zm0,.76v8.15h-3.43v-8.15h3.43Zm0,8.91v3.89c-1.22.99-2.3,2.26-2.8,3.81-.1.3-.19.59-.29.89h-.34v-8.6h3.43Zm-3.33,9.35c-.03.1-.06.21-.1.31v-.31h.1Zm20.83-38.44v-4.07h1.84c-.95,1.1-1.56,2.46-1.84,4.07Zm-.76,2.87h-3.43v-6.94h3.43v6.94Zm-4.19,0h-3.43v-6.94h3.43v6.94Zm-4.19,0h-3.43v-6.94h3.43v6.94Zm-4.19,0h-3.43v-6.94h3.43v6.94Zm-4.19,0h-3.43v-6.94h3.43v6.94Zm0,.76v7.32h-3.43v-7.32h3.43Zm-4.19,7.32h-3.43v-7.32h3.43v7.32Zm0,.76v7.73h-3.43v-7.73h3.43Zm0,8.48v8.15h-3.43v-8.15h3.43Zm0,8.91v8.6h-3.43v-8.6h3.43Zm0,9.35v2.92c-.51,1.97-.85,3.98-.86,6.14h-2.57v-9.06h3.43Zm-.83,9.82c0,.21,0,.42.02.64.19,2.81-.23,4.08-.55,5-.16.46-.29.86-.33,1.34l-.04.55c-.04.48-.09,1.18-.15,2.03h-1.55v-9.55h2.6Zm-1.09,10.31c-.19,2.86-.4,6.93-.3,10.07h-1.2v-10.07h1.5Zm-.28,10.83c.13,3.26.08,3.54-.1,4.53-.07.36-.15.82-.25,1.54l-.05.36c-.15,1.06-.35,2.53-.54,4.19h-.28v-10.61h1.22Zm-1.03,11.37c-.07.62-.13,1.25-.19,1.9v-1.9h.19Zm.32,23.71h-.51v-8.5c.17,3.01.36,6.2.51,8.5Zm.05.76c.07.97.12,1.72.16,2.13.09.99.34,2.51.59,3.97.26,1.55.53,3.16.53,3.74,0,.68-.12,1.61-.25,2.55h-1.59v-12.4h.56Zm.92,13.16c-.05.35-.09.7-.13,1.01-.15,1.32-.2,2.05-.2,2.05v.08s.02.08.02.08c1.54,4.17,1.77,4.36,1.86,4.43.06.05.16.1.38.18v5.25h-3.43v-13.06h1.49Zm1.94,13.82v13.75h-3.43v-13.75h3.43Zm0,14.51v14.48h-3.43v-14.48h3.43Zm0,15.23v15.24h-3.43v-15.24h3.43Zm.76,0h3.43v15.24h-3.43v-15.24Zm3.43,15.99v16.04h-3.43v-16.04h3.43Zm.76,0h3.43v16.04h-3.43v-16.04Zm4.19,0h3.43v16.04h-3.43v-16.04Zm4.19,0h2.12c.15,1.63.42,3.27.87,4.81.15.5.3,1.01.45,1.53v9.7h-3.43v-16.04Zm4.19,8.96c.73,2.56,1.45,5.11,1.99,7.08h-1.99v-7.08Zm4.19,21.68v-6.87c.3.95.55,1.83.55,2.14,0,.14,0,.32.01.53.04,1.1.1,3.06-.57,4.2Zm19.6-4.2c0-.21.01-.39.01-.53,0-.31.25-1.19.55-2.14v6.87c-.66-1.14-.61-3.1-.57-4.2Zm4.75-17.49v7.08h-1.99c.54-1.97,1.25-4.51,1.99-7.08Zm.76-2.62c.15-.52.3-1.03.45-1.53.45-1.54.72-3.18.87-4.81h2.12v16.04h-3.43v-9.7Zm4.19-6.34h3.43v16.04h-3.43v-16.04Zm4.19,0h3.43v16.04h-3.43v-16.04Zm4.19,0h3.43v16.04h-3.43v-16.04Zm0-.76v-15.24h3.43v15.24h-3.43Zm4.19-15.24h3.43v15.24h-3.43v-15.24Zm0-.76v-14.48h3.43v14.48h-3.43Zm0-15.23v-13.75h3.43v13.75h-3.43Zm0-14.51v-5.25c.22-.08.33-.13.38-.18.09-.07.32-.26,1.86-4.43l.03-.08v-.08s-.05-.73-.2-2.05c-.03-.31-.08-.65-.13-1.01h1.49v13.06h-3.43Zm1.84-13.82c-.13-.94-.25-1.88-.25-2.55,0-.58.27-2.19.53-3.74.24-1.46.49-2.98.59-3.97.04-.42.1-1.17.16-2.13h.56v12.4h-1.59Zm1.08-13.16c.15-2.3.35-5.49.51-8.5v8.5h-.51Zm.51-21.81c-.06-.65-.13-1.29-.19-1.9h.19v1.9Zm-.28-2.66c-.19-1.66-.4-3.13-.54-4.19l-.05-.36c-.1-.72-.18-1.17-.25-1.54-.18-.99-.23-1.26-.1-4.53h1.22v10.61h-.28Zm-.92-11.37c.09-3.14-.12-7.21-.3-10.07h1.5v10.07h-1.2Zm-.36-10.83c-.06-.84-.11-1.55-.15-2.03l-.04-.55c-.03-.47-.17-.87-.33-1.34-.31-.92-.74-2.19-.55-5,.01-.22.01-.43.02-.64h2.6v9.55h-1.55Zm-1.02-10.31c0-2.16-.35-4.17-.86-6.14v-2.92h3.43v9.06h-2.57Zm-.86-9.82v-8.6h3.43v8.6h-3.43Zm0-9.35v-8.15h3.43v8.15h-3.43Zm0-8.91v-7.73h3.43v7.73h-3.43Zm0-8.48v-7.32h3.43v7.32h-3.43Zm0-8.08v-6.94h3.43v6.94h-3.43Zm0-7.69v-6.57h3.43v6.57h-3.43Zm-.76,0h-3.43v-6.57h3.43v6.57Zm-4.19,0h-3.43v-6.57h3.43v6.57Zm-4.19,0h-3.43v-6.57h3.43v6.57Zm-4.19,0h-3.43v-6.57h3.43v6.57Zm-4.19,0h-3.43v-6.57h3.43v6.57Zm-4.19,0h-2.6c-.27-.24-.55-.45-.83-.64v-5.93h3.43v6.57Zm-4.19-1.1c-1.18-.63-2.4-.95-3.43-1.12v-4.35h3.43v5.47Zm-4.19-1.22c-.97-.1-1.64-.06-1.69-.05-.07,0-.76-.05-1.74.05v-4.25h3.43v4.25Zm-4.19.1c-1.03.17-2.25.49-3.43,1.12v-5.47h3.43v4.35Zm-4.19,1.57c-.29.19-.57.41-.83.64h-2.6v-6.57h3.43v5.93Zm-4.19.64h-3.43v-6.57h3.43v6.57Zm-4.19,0h-3.43v-6.57h3.43v6.57Zm-4.19,0h-3.43v-6.57h3.43v6.57Zm-4.19,0h-3.43v-6.57h3.43v6.57Zm-4.19,0h-3.43v-6.57h3.43v6.57Zm-4.19,0h-3.43v-6.57h3.43v6.57Zm0,.76v6.94h-3.43v-6.94h3.43Zm-4.19,6.94h-3.43v-6.94h3.43v6.94Zm0,.76v7.32h-3.43v-7.32h3.43Zm0,8.08v7.73h-3.43v-7.73h3.43Zm0,8.48v8.15h-3.43v-8.15h3.43Zm0,8.91v8.6h-3.43v-8.6h3.43Zm0,9.35v9.06h-3.43v-9.06h3.43Zm0,9.82v9.55h-3.43v-9.55h3.43Zm0,10.31v10.07h-3.43v-10.07h3.43Zm0,10.83v10.61h-3.43v-10.61h3.43Zm0,11.37v11.18h-3.43v-11.18h3.43Zm0,11.93v11.78h-3.43v-11.78h3.43Zm0,12.53v12.4h-3.43v-12.4h3.43Zm0,13.16v13.06h-3.43v-13.06h3.43Zm0,13.82v13.75h-3.43v-13.75h3.43Zm0,14.51v14.48h-3.43v-14.48h3.43Zm0,15.23v15.24h-3.43v-15.24h3.43Zm0,15.99v16.04h-3.43v-16.04h3.43Zm.76,0h3.43v16.04h-3.43v-16.04Zm3.43,16.79v16.88h-3.43v-16.88h3.43Zm.76,0h3.43v16.88h-3.43v-16.88Zm4.19,0h3.43v16.88h-3.43v-16.88Zm4.19,0h3.43v16.88h-3.43v-16.88Zm4.19,0h3.43v16.88h-3.43v-16.88Zm4.19,0h2.19c.43,1.59.71,2.68.73,2.91.03.26.21.86.5,1.76v10.21c-.35.46-.74.98-1.14,1.49-.13.17-.26.34-.38.51h-1.91v-16.88Zm1.33,17.63c-.48.62-.87,1.13-.99,1.25-.05.05-.19.13-.35.22v-1.46h1.33Zm12.61-.76c-.08-.81-.09-1.54-.02-2.2.07-.65-.82-2.95-1.36-4.29v-10.39h3.43v10.39c-.54,1.34-1.43,3.64-1.36,4.29.07.66.06,1.39-.02,2.2h-.66Zm14.6,2.22c-.15-.08-.3-.17-.35-.22-.12-.12-.51-.62-.99-1.25h1.33v1.46Zm-1.91-2.22c-.13-.17-.26-.34-.38-.51-.39-.52-.78-1.03-1.14-1.49v-10.21c.3-.91.48-1.5.51-1.76.02-.23.3-1.32.73-2.91h2.19v16.88h-1.91Zm2.67-16.88h3.43v16.88h-3.43v-16.88Zm4.19,0h3.43v16.88h-3.43v-16.88Zm4.19,0h3.43v16.88h-3.43v-16.88Zm4.19,0h3.43v16.88h-3.43v-16.88Zm4.19,0h3.43v16.88h-3.43v-16.88Zm0-.76v-16.04h3.43v16.04h-3.43Zm4.19-16.04h3.43v16.04h-3.43v-16.04Zm0-.76v-15.24h3.43v15.24h-3.43Zm0-15.99v-14.48h3.43v14.48h-3.43Zm0-15.23v-13.75h3.43v13.75h-3.43Zm0-14.51v-13.06h3.43v13.06h-3.43Zm0-13.82v-12.4h3.43v12.4h-3.43Zm0-13.16v-11.78h3.43v11.78h-3.43Zm0-12.53v-11.18h3.43v11.18h-3.43Zm0-11.93v-10.61h3.43v10.61h-3.43Zm0-11.37v-10.07h3.43v10.07h-3.43Zm0-10.83v-9.55h3.43v9.55h-3.43Zm0-10.31v-9.06h3.43v9.06h-3.43Zm0-9.82v-8.6h3.43v8.6h-3.43Zm0-9.35v-8.15h3.43v8.15h-3.43Zm0-8.91v-7.73h3.43v7.73h-3.43Zm0-8.48v-7.32h3.43v7.32h-3.43Zm0-8.08v-6.94h3.43v6.94h-3.43Zm0-7.69v-6.57h3.43v6.57h-3.43Zm0-7.33V1.26h3.43v6.22h-3.43Zm-.76,0h-3.43V1.26h3.43v6.22Zm-4.19,0h-3.43V1.26h3.43v6.22Zm-4.19,0h-3.43V1.26h3.43v6.22Zm-4.19,0h-3.43V1.26h3.43v6.22Zm-4.19,0h-3.43V1.26h3.43v6.22Zm-4.19,0h-3.43V1.26h3.43v6.22Zm-4.19,0h-3.43V1.26h3.43v6.22Zm-4.19,0h-3.43V1.26h3.43v6.22Zm-4.19,0h-3.43V1.26h3.43v6.22Zm-4.19,0h-3.43V1.26h3.43v6.22Zm-4.19,0h-3.43V1.26h3.43v6.22Zm-4.19,0h-3.43V1.26h3.43v6.22Zm-4.19,0h-3.43V1.26h3.43v6.22Zm-4.19,0h-3.43V1.26h3.43v6.22Zm-4.19,0h-3.43V1.26h3.43v6.22Zm-4.19,0h-3.43V1.26h3.43v6.22Zm-4.19,0h-3.43V1.26h3.43v6.22Zm-4.19,0h-3.43V1.26h3.43v6.22Zm0,.76v6.57h-3.43v-6.57h3.43Zm-4.19,6.57h-3.43v-6.57h3.43v6.57Zm0,.76v6.94h-3.43v-6.94h3.43Zm0,7.69v7.32h-3.43v-7.32h3.43Zm0,8.08v7.73h-3.43v-7.73h3.43Zm0,8.48v8.15h-3.43v-8.15h3.43Zm0,8.91v8.6h-3.43v-8.6h3.43Zm0,9.35v9.06h-3.43v-9.06h3.43Zm0,9.82v9.55h-3.43v-9.55h3.43Zm0,10.31v10.07h-3.43v-10.07h3.43Zm0,10.83v10.61h-3.43v-10.61h3.43Zm0,11.37v11.18h-3.43v-11.18h3.43Zm0,11.93v11.78h-3.43v-11.78h3.43Zm0,12.53v12.4h-3.43v-12.4h3.43Zm0,13.16v13.06h-3.43v-13.06h3.43Zm0,13.82v13.75h-3.43v-13.75h3.43Zm0,14.51v14.48h-3.43v-14.48h3.43Zm0,15.23v15.24h-3.43v-15.24h3.43Zm0,15.99v16.04h-3.43v-16.04h3.43Zm0,16.79v16.88h-3.43v-16.88h3.43Zm.76,0h3.43v16.88h-3.43v-16.88Zm3.43,17.63v17.76h-3.43v-17.76h3.43Zm.76,0h3.43v17.76h-3.43v-17.76Zm4.19,0h3.43v17.76h-3.43v-17.76Zm4.19,0h3.43v17.76h-3.43v-17.76Zm4.19,0h3.43v17.76h-3.43v-17.76Zm4.19,0h3.43v1.89c-.6.37-1.15.84-1.04,1.5.05.28.01.55-.02.78-.04.32-.08.62.11.87.12.15.3.24.54.27.09.01.24.03.42.05v12.4h-3.43v-17.76Zm4.19,5.46c1.02.14,2.42.33,3.43.4v11.9h-3.43v-12.3Zm4.19.42c1.21,0,1.56.01,3.41.36h.02v11.52h-3.43v-11.87Zm4.19.5c1.36.25,2.56.37,3.43-.28v11.65h-3.43v-11.37Zm4.19-1.18c.76-1.34,1.48-3.9,1.45-5.21h.52c-.02,1.31.69,3.87,1.45,5.21v12.55h-3.43v-12.55Zm4.19.91c.47.35,1.02.47,1.65.47.55,0,1.15-.09,1.78-.21v11.37h-3.43v-11.64Zm4.19.13h.02c1.85-.35,2.19-.36,3.41-.36v11.87h-3.43v-11.51Zm4.19-.38c1.01-.06,2.41-.25,3.43-.4v12.3h-3.43v-11.9Zm4.19-.5c.18-.02.32-.04.42-.05.24-.03.42-.12.53-.27.19-.25.15-.55.11-.87-.03-.23-.07-.5-.02-.78.11-.66-.44-1.14-1.04-1.5v-1.89h3.43v17.76h-3.43v-12.4Zm4.19-5.36h3.43v17.76h-3.43v-17.76Zm4.19,0h3.43v17.76h-3.43v-17.76Zm4.19,0h3.43v17.76h-3.43v-17.76Zm4.19,0h3.43v17.76h-3.43v-17.76Zm4.19,0h3.43v17.76h-3.43v-17.76Zm0-.76v-16.88h3.43v16.88h-3.43Zm4.19-16.88h3.43v16.88h-3.43v-16.88Zm0-.76v-16.04h3.43v16.04h-3.43Zm0-16.79v-15.24h3.43v15.24h-3.43Zm0-15.99v-14.48h3.43v14.48h-3.43Zm0-15.23v-13.75h3.43v13.75h-3.43Zm0-14.51v-13.06h3.43v13.06h-3.43Zm0-13.82v-12.4h3.43v12.4h-3.43Zm0-13.16v-11.78h3.43v11.78h-3.43Zm0-12.53v-11.18h3.43v11.18h-3.43Zm0-11.93v-10.61h3.43v10.61h-3.43Zm0-11.37v-10.07h3.43v10.07h-3.43Zm0-10.83v-9.55h3.43v9.55h-3.43Zm0-10.31v-9.06h3.43v9.06h-3.43Zm0-9.82v-8.6h3.43v8.6h-3.43Zm0-9.35v-8.15h3.43v8.15h-3.43Zm0-8.91v-7.73h3.43v7.73h-3.43Zm0-8.48v-7.32h3.43v7.32h-3.43Zm0-8.08v-6.94h3.43v6.94h-3.43Zm0-7.69v-6.57h3.43v6.57h-3.43ZM78.93,1.26v6.22h-3.43V1.26h3.43Zm-3.43,230.73h3.43v17.76h-3.43v-17.76Zm83.7,17.76v-17.76h3.43v17.76h-3.43Z"/>
</svg>