<?xml version="1.0" encoding="UTF-8"?>
<svg id="Layer_1" data-name="Layer 1" xmlns="http://www.w3.org/2000/svg" viewBox="0 0 157.97 227.06">
  <defs>
    <style>
      .cls-1 {
        stroke-width: 0px;
      }
    </style>
  </defs>
  <path class="cls-1" d="m119.24,124.41c.21-.07.8,2.93.72,7.39-.08,4.46.64,19.68.56,21s.24,10.98.32,12.51c.08,1.54-.08,5.56,0,6.37.08.8-.08,3.88-.24,9.29s1.28,15.95,1.28,17.05c0,1.1.64,9.81.32,11.12s.08,2.85-.24,3.51-2,4.39-1.92,5.12c.08.73.08,1.61-.08,2.78s.8,4.39,1.76,5.63c.96,1.24,2.64.88,4.81.51s2.48-.37,4-.37c1.52,0,4.97-.51,5.69-.59.72-.07.16-.73.32-1.61s-1.84-1.46-2.24-1.83c-.4-.37-2.88-3.44-4.08-4.83-1.2-1.39-.88-4.32-.88-5.27,0-.95,1.92-5.56,2-6.29.08-.73,2.64-9.07,4.56-15.07,1.92-6,.88-13.76.16-16.03-.72-2.27-.88-7.02-.64-8.63.24-1.61.4-6.51.16-7.54-.24-1.02.56-3.95.48-5.63-.08-1.68,2.16-10.17,5.13-21.88,2.96-11.71.48-24.64,0-28.59-.48-3.95-1.44-8.88-1.23-9.81s.32-1.51-.32-5.17c-.64-3.66.43-8.2.48-10.78.05-2.59,2.94-7.17,3.36-7.46s1.01.83,1.01,2.29c0,1.46,1.23,8.05,1.23,8.05,0,0,.75,1.07.43,7.85-.32,6.78.85,14.88.85,14.88,0,0,2.03,13.07,2.03,14.49,0,1.41-1.71,3.85-3.68,5.07s-2.4,4-2.4,4c0,0-.48,1.85,0,2.49s1.01,3.27,1.17,3.41.8.59.8.59c0,0,1.87,2.63,2.3,2.78s.91.24,1.17.24.37-.24.53-.39,5.23-1.37,5.5-1.56,1.92-4.29,1.92-4.29c0,0-.05-.73-.21-2.05-.16-1.32-.53-3.22-.53-4.39,0-1.17,1.01-5.71,1.23-7.81s.91-12.49,1.12-17.46-.85-11.76-1.28-14.59c-.43-2.83-.59-1.61-.37-6.54.21-4.93-.48-12.49-.59-13.85s-1.28-2.2-.96-6.44c.32-4.24-.91-7.85-2.4-12.05-1.49-4.2-7.69-6.24-8.81-6.34s-4.27-.54-5.34-1.02-5.82-2.24-5.82-2.24c0,0-3.68-.24-4.97-2.15-1.28-1.9-.05-4.41.48-5.71s.48-3.56.59-4.34.96-3.27.96-3.27l.75-.05c.75-.05.8-1.37,1.17-2.29.37-.93.16-2.34,0-3.27-.16-.93-1.55-.2-1.55-.2.32-.93.32-4.2.32-4.2,0-9.66-10.89-8.98-10.89-8.98,0,0-10.89-.68-10.89,8.98,0,0,0,3.27.32,4.2,0,0-1.39-.73-1.55.2s-.37,2.34,0,3.27.43,2.24,1.17,2.29l.75.05s.85,2.49.96,3.27.05,3.03.59,4.34,1.76,3.81.48,5.71c-1.28,1.9-4.97,2.15-4.97,2.15,0,0-4.75,1.76-5.82,2.24s-4.22.93-5.34,1.02-7.31,2.15-8.81,6.34c-1.49,4.2-2.72,7.81-2.4,12.05.32,4.24-.85,5.07-.96,6.44-.11,1.37-.8,8.93-.59,13.85.21,4.93.05,3.71-.37,6.54-.43,2.83-1.49,9.61-1.28,14.59s.91,15.37,1.12,17.46c.21,2.1,1.23,6.63,1.23,7.81s-.37,3.07-.53,4.39c-.16,1.32-.21,2.05-.21,2.05,0,0,1.66,4.1,1.92,4.29s5.34,1.41,5.5,1.56.27.39.53.39.75-.1,1.17-.24,2.3-2.78,2.3-2.78c0,0,.64-.44.8-.59s.69-2.78,1.17-3.41c.48-.63,0-2.49,0-2.49,0,0-.43-2.78-2.4-4-1.98-1.22-3.68-3.66-3.68-5.07s2.03-14.49,2.03-14.49c0,0,1.17-8.1.85-14.88-.32-6.78.43-7.85.43-7.85,0,0,1.23-6.59,1.23-8.05s.59-2.59,1.01-2.29,3.31,4.88,3.36,7.46c.05,2.59,1.12,7.12.48,10.78-.64,3.66-.53,4.24-.32,5.17s-.75,5.85-1.23,9.81c-.48,3.95-2.96,16.88,0,28.59,2.96,11.71,5.21,20.2,5.13,21.88-.08,1.68.72,4.61.48,5.63-.24,1.02-.08,5.93.16,7.54.24,1.61.08,6.37-.64,8.63-.72,2.27-1.76,10.03.16,16.03,1.92,6,4.48,14.34,4.56,15.07s2,5.34,2,6.29.32,3.88-.88,5.27c-1.2,1.39-3.68,4.46-4.08,4.83s-2.4.95-2.24,1.83c.16.88-.4,1.54.32,1.61.72.07,4.16.59,5.69.59s1.84,0,4,.37c2.16.37,3.84.73,4.81-.51.96-1.24,1.92-4.46,1.76-5.63-.16-1.17-.16-2.05-.08-2.78s-1.6-4.46-1.92-5.12.08-2.2-.24-3.51.32-10.03.32-11.12,1.44-11.64,1.28-17.05c-.16-5.42-.32-8.49-.24-9.29s-.08-4.83,0-6.37.4-11.2.32-12.51.64-16.54.56-21c-.08-4.46.51-7.46.72-7.39Z"/>
</svg>