<?xml version="1.0" encoding="UTF-8"?>
<svg id="Layer_1" data-name="Layer 1" xmlns="http://www.w3.org/2000/svg" viewBox="0 0 191.8 250">
  <defs>
    <style>
      .cls-1 {
        stroke-width: 0px;
      }
    </style>
  </defs>
  <path class="cls-1" d="m191.08,65.48c-3.1-19.77-13.79-35.09-22.8-46.27-9.41-10.7-23.11-17.41-35.75-17.53-4.24-.04-8.42-.45-12.46-.85-1.08-.11-2.18-.21-3.28-.31-.07-.05-.16-.07-.25-.06-.03,0-.05.02-.08.03-5.43-.49-11.03-.8-16.87-.05l-2.38.31c-8.44,1.08-16.98,2.19-25.28,4.03-.05-.04-.11-.07-.18-.07-.15-.01-.27.07-.33.18-14.53,3.28-28.32,8.87-39.54,20.7l-.14.15-.08.19c-1.27,3.24-.94,5.92-.62,8.51.31,2.53.61,4.93-.65,7.81-1.06,2.43-2.17,4.89-3.24,7.28-.62,1.38-1.25,2.77-1.86,4.15-.47,1.05-.96,2.11-1.46,3.18-2.87,6.14-5.84,12.48-4.96,19.39.25,1.98.88,3.93,1.49,5.81.73,2.26,1.42,4.4,1.49,6.55.13,3.73-1.63,5.76-4.07,8.56-.35.4-.7.81-1.06,1.23-1.37,1.62-2.85,3.25-4.28,4.83-3.23,3.56-6.56,7.24-9.14,11.34-1.99,3.16-3.87,6.55-3.16,10.17.6,3.07,2.67,4.48,4.49,5.73,1.34.91,2.49,1.7,3.07,3.03.77,1.78.06,2.43-1.78,3.85-1.32,1.03-2.97,2.31-3.61,4.5l-.24,3.84.05.17c.69,2.42,1.98,4.48,3.84,6.15-.08,1.25-.71,2.2-1.42,3.29-1.14,1.74-2.42,3.71-1.31,6.98.94,2.76,3.17,3.55,4.95,4.18,1.73.61,2.82,1.05,3.36,2.43.7,1.79.65,3.87.59,6.07-.07,2.67-.14,5.44,1.08,8.13,2.31,5.07,6.02,7.95,11.26,10.94l.12.07.14.04c7.66,1.97,14.21.62,21.15-.81,2.24-.46,4.56-.94,6.97-1.32,13.3-2.07,17.31,3.3,18.34,8.16.38,1.82.66,3.72.93,5.55.86,5.87,1.74,11.93,6.21,16.94,1.1,1.24,2.15,2.24,3.17,3.21,2.09,2,3.9,3.73,5.42,6.79.47.95.9,1.9,1.32,2.82,1.13,2.51,2.2,4.88,4.08,7.2l.25.31c1.97,2.45,5.63,6.99,8.89,6.99.03,0,.06,0,.09,0,2.46-.06,5.49-2.87,7.91-5.13.75-.7,1.41-1.31,1.88-1.68l2.77-2.15c5.21-4.05,10.6-8.24,15.83-12.46,3.59-2.9,7.02-5.94,10.33-8.87,10.7-9.49,20.81-18.45,35.26-22.12l.13-.04c1.3-.52,2.2-1.36,2.67-2.5,1.11-2.67-.4-6.22-1.73-9.35-.48-1.14-.94-2.21-1.16-3.03-1.03-3.74-1.84-7.4-2.4-10.9-1.49-9.27-2.07-17.18-1.78-24.18.42-9.97,4.26-18.17,8.33-26.85,1.93-4.12,3.93-8.38,5.56-12.89,5.87-16.26,7.8-30.11,5.88-42.35Zm-1.53,5.82c-3.61-1.14-7.39-1.96-11.32-2.45-.03-2.17-.16-4.36-.42-6.58-.32-2.68-.73-5.31-1.23-7.92,3.73.87,7.3,2.03,10.67,3.49.71,2.57,1.29,5.23,1.72,7.97.28,1.79.46,3.62.57,5.49Zm-.76,14.57c-3.83-.88-7.82-1.4-11.99-1.56.91-4.77,1.45-9.7,1.43-14.75,3.95.5,7.74,1.33,11.36,2.5.2,4.37-.06,8.97-.8,13.81Zm-3.28,14.23c-4.27-.66-8.53-.87-12.73-.74,1.53-4.56,2.9-9.36,3.89-14.34,4.18.15,8.18.67,12.01,1.55-.69,4.3-1.74,8.8-3.17,13.52Zm-28.58,75.35c.58,4.81,1.2,8.48,2.01,11.9.13.53.32,1.13.55,1.77-4.01,1.95-8.06,4.37-12.67,7.58-.04-.13-.08-.27-.11-.4-.96-4.24-1.45-8.46-1.83-12.38-.1-1.03-.21-2.05-.32-3.06,3.97-2.41,8.01-4.58,12.26-6.35.04.32.07.63.11.95Zm3.4,26.09s-.03.03-.05.04c-3.61,2.08-6.99,4.47-10.26,7.04.29-2.59-.95-5.78-2.01-8.53-.37-.95-.72-1.86-.98-2.68,4.64-3.24,8.7-5.68,12.71-7.63.15.38.3.77.46,1.17,1.52,3.86,3.42,8.67.13,10.58Zm-86.08,3.89c-.27-1.86-.55-3.79-.95-5.68-.24-1.14-.6-2.18-1.06-3.14-.11-1.7-.26-3.42-.6-5.13-.1-.52-.24-1.01-.39-1.48.68.56,1.36,1.1,2.03,1.62,1.79,1.39,3.65,2.82,5.15,4.64.92,1.12,1.7,2.26,2.44,3.38.17.64.31,1.3.39,1.99.25,2.17.36,4.33.47,6.43.15,2.9.3,5.87.84,8.87-.03-.05-.06-.09-.09-.14-2.08-3.35-4.39-5.27-7.08-7.5-.21-.18-.43-.36-.65-.54-.18-1.09-.35-2.19-.51-3.31Zm-9.93-15.19c-.04-.17-.08-.33-.13-.49v-.09s-.02,0-.02,0c-.03-.29-.06-.57-.08-.84.53.65,1.07,1.29,1.63,1.9-.45-.18-.92-.33-1.4-.47Zm-1.42-4.25l-.04-.09h0c-.36-.72-.78-1.39-1.24-2.01-.38-.68-.73-1.38-1.05-2.11-1.03-2.37-1.3-4.86-1.57-7.27-.02-.16-.04-.32-.06-.48.2.22.39.43.59.63,1.38,1.47,2.69,2.87,3.13,5.43.32,1.84.42,3.73.52,5.55.01.27.03.53.05.8-.11-.15-.21-.31-.31-.46Zm-47.73-3.77c-1.02-2.24-.96-4.76-.89-7.19.06-2.16.11-4.39-.59-6.46,3.82.24,8.37-.57,13.22-1.59.17.25.33.52.46.83.84,2,.88,4.28.93,6.69.05,2.55.11,5.18,1.14,7.63-4.08.77-8.86,1.4-14,.63-.09-.18-.18-.36-.26-.54Zm14.97-.23c-1.03-2.36-1.09-4.98-1.14-7.51-.05-2.48-.09-4.82-.98-6.95-.11-.26-.23-.5-.36-.72.69-.15,1.39-.3,2.09-.45,4.18-.91,8.41-1.82,12.38-2.23.28.42.54.87.75,1.39.86,2.14,1.05,4.32,1.25,6.62.2,2.29.42,4.65,1.34,6.99-.51.05-1.03.11-1.6.18-3.19.43-6.27,1.09-9.25,1.74-1.47.32-2.99.64-4.48.93Zm-6.22-18.07c-1.68-.82-3.27-1.59-4-3.73-.56-1.65-.24-3.06.32-4.39.31-.08.63-.16.94-.25,4.64-1.22,9.35-2.45,13.76-3.01-.2,1.36-.16,2.8.54,4.39.89,2.03,2.37,3.23,3.81,4.39.85.68,1.66,1.35,2.35,2.16-3.95.42-8.08,1.32-12.04,2.17-.8.17-1.59.35-2.38.51-.89-1.09-2.11-1.69-3.29-2.26Zm-1.77-14.54c-.34-1.46-1.16-2.61-1.95-3.72-.74-1.04-1.45-2.04-1.75-3.26.32-.1.65-.19.97-.28,4.7-1.38,9.46-2.78,13.97-3.48.27.94.7,1.82,1.13,2.72.64,1.32,1.3,2.68,1.52,4.37.2,1.56-.17,2.97-.56,4.45-.15.55-.29,1.1-.41,1.67-4.61.55-9.45,1.81-14.06,3.02-.13.03-.25.07-.38.1.12-.24.24-.47.35-.71.78-1.53,1.58-3.12,1.17-4.89Zm-3.66-9.69c.45-1.76,1.64-2.9,2.79-4,1.59-1.52,3.09-2.97,2.13-5.7.48-.16.95-.31,1.44-.47,4.31-1.42,8.68-2.85,12.9-3.69.53,2.39-.28,3.18-1.44,4.31-.76.74-1.62,1.58-2.31,3.02-.91,1.92-1.03,3.45-.77,4.82-4.63.71-9.44,2.12-14.01,3.47-.3.09-.6.17-.89.26-.06-.61-.02-1.27.17-2.02Zm-2.03-21.47c.23-.08.45-.15.68-.23,4.78-1.62,9.62-3.26,14.39-4.25-.11.97-.09,1.94.1,2.92.43,2.25,1.99,3.71,3.36,5,1.09,1.03,2.13,2,2.51,3.24.03.08.05.16.07.24-4.25.85-8.62,2.29-12.94,3.71-.5.16-.99.33-1.49.49-.71-1.47-1.91-2.49-3.07-3.48-1.61-1.36-3.14-2.65-3.57-5.11-.15-.84-.15-1.68-.03-2.52Zm16.18-25.87c4.45-1.89,8.96-3.74,13.48-5.05-.17.27-.34.53-.5.8-1.38,2.25-2.9,4.49-4.37,6.65-1,1.48-2.02,2.97-3.01,4.49-4.73,1.09-9.46,2.79-14.14,4.52,1-1.36,2.02-2.69,3.04-4.01,1.38-1.8,2.81-3.66,4.13-5.51.27-.38.54-.75.81-1.12.19-.26.38-.52.56-.78Zm3.4-9.39c-.09-1.67-.49-3.33-.97-4.96,4.33-1.98,8.72-3.84,13.17-5.24.6,1.85,1.12,3.71,1.26,5.51.24,3.12-1.2,5.58-2.81,8.13-4.46,1.23-8.9,3.01-13.28,4.86,1.67-2.46,2.83-4.8,2.63-8.29Zm-1.71-7.34c-.59-1.83-1.2-3.72-1.5-5.58-.39-2.44-.32-4.86.04-7.26,4.24-2.05,8.55-3.93,12.94-5.43-.27,3.07-.16,6.2.6,9.48.34,1.46.84,2.97,1.33,4.44.09.27.18.54.27.81-4.45,1.4-8.83,3.26-13.15,5.23-.17-.57-.36-1.13-.54-1.69Zm7.46-41.67c3.35-2.16,6.82-4.09,10.39-5.75,0,.13,0,.25-.01.38-.24,3.29-1.24,6.8-2.21,10.19-.3,1.04-.57,2.03-.83,3.02-4.05,1.58-7.91,3.43-11.53,5.39l.15-.44c1.22-3.63,2.47-7.38,3.65-11.09.18-.58.31-1.14.4-1.68Zm-.36-7.1c-.4-2.15-.77-4.21-.43-6.56,3-2.28,6.12-4.22,9.35-5.89-.18,2.6.37,4.89.91,7.11.45,1.87.92,3.8.93,5.9-3.53,1.62-6.96,3.5-10.27,5.61.23-2.22-.14-4.23-.5-6.18Zm90.47-8.04c1.54,5.36,2.87,10.66,3.49,16.46.02.22.04.43.06.65-2.41.2-4.82.43-7.22.65-1.61.15-3.23.3-4.86.45-.03-.86-.07-1.73-.12-2.59-.28-4.72-.65-10.14-1.43-15.37,3.37-.16,6.74-.26,10.08-.27Zm17.63-10.96c.75,1.63,1.51,3.25,2.27,4.87,1.26,2.67,2.49,5.28,3.64,7.91-3.37-.87-6.83-1.47-10.34-1.86-.83-2.41-1.72-4.82-2.63-7.27-.82-2.22-1.66-4.51-2.47-6.82,3.21.68,6.42,1.76,9.54,3.18Zm9.82,5.91c2.11,3.53,4.02,6.93,5.72,10.26-2.84-1.31-5.77-2.36-8.76-3.18-1.22-2.8-2.53-5.59-3.87-8.44-.64-1.36-1.28-2.73-1.91-4.1,3.07,1.49,6.04,3.32,8.82,5.46Zm21.72,28.34c-2.93-1.55-5.9-2.78-8.9-3.74-1.52-4.2-3.34-8.42-5.5-12.77,2.44,1.25,4.8,2.71,7.09,4.42,2.56,3.7,5.07,7.73,7.31,12.1Zm-3.53,26.65c-3.88-.45-7.92-.58-12.09-.4,0-2.32-.12-4.66-.37-7.05-.3-2.89-.6-5.81-.94-8.73,4.02.23,7.94.77,11.7,1.6.53,2.69.96,5.4,1.28,8.17.25,2.15.38,4.28.42,6.4Zm-35.04,88.58c-.15,2.31-.17,4.54-.11,6.74-4.24,2.22-8.42,4.69-12.66,7.23.07-1.01.16-2.03.26-3.07.18-1.9.36-3.86.39-5.85.02-1.13,0-2.23,0-3.32-.02-1.51-.03-2.99.03-4.47,4.12-2.17,8.2-4.26,12.32-6.11-.08,1.4-.1,2.8-.11,4.23-.01,1.5-.02,3.05-.13,4.61Zm-60.96,41.99c-.5-1.77-1.28-3.37-2.04-4.94-1.1-2.25-2.23-4.58-2.48-7.34-.07-.8-.05-1.58.02-2.35,1.42,1.33,2.9,2.62,4.5,3.79,2.55,1.86,4.58,3.02,6.47,3.57-.32,2.12-.48,4.32-.1,6.64.4,2.39,1.18,4.54,1.95,6.62.44,1.21.87,2.4,1.23,3.61-1.4-.72-2.92-1.85-4.72-3.47-1.96-1.77-3.22-3.67-4.55-5.7-.09-.14-.19-.28-.28-.43Zm-45.84-46.85c5.2-.58,9.95-.15,13.68,2.42-.09.88-.08,1.77.13,2.68.64,2.72,2.36,4.4,4.02,6.03.53.52,1.05,1.03,1.54,1.57-3.51-1.88-7.9-2.18-12.58-1.76-.8-1.05-1.78-1.85-2.74-2.63-1.43-1.16-2.78-2.25-3.6-4.12-.67-1.52-.67-2.87-.45-4.19Zm1.06-6.83c-.23-1.81-.92-3.22-1.59-4.59-.42-.85-.81-1.66-1.06-2.51,5.12-.72,9.87-.47,13.81,1.8.28.76.65,1.47,1.05,2.22.55,1.04,1.13,2.12,1.54,3.53.54,1.85.06,3.67-.45,5.6-.21.8-.42,1.61-.56,2.44-3.8-2.44-8.56-2.87-13.65-2.35.1-.47.22-.94.35-1.41.39-1.49.8-3.03.58-4.73Zm-2.11-12.17c.63-1.32,1.44-2.12,2.16-2.81,1.19-1.16,2.23-2.18,1.64-4.95,4.99-.92,9.76-.96,14.01.88.05,1.98-.98,3.23-2.16,4.64-.91,1.09-1.85,2.21-2.34,3.78-.58,1.83-.6,3.21-.33,4.41-3.98-2.03-8.72-2.21-13.69-1.53-.25-1.26-.14-2.65.7-4.41Zm3.54-8.78c-.44-1.42-1.54-2.45-2.7-3.55-1.36-1.27-2.76-2.59-3.15-4.61-.19-.98-.19-1.95-.06-2.93,4.9-.94,9.72-1.16,14.31.09-.09,1.28,0,2.59.36,3.93.42,1.6,1.71,3.04,2.95,4.43,1.16,1.3,2.26,2.54,2.48,3.72-4.31-1.76-9.12-1.69-14.11-.76-.03-.1-.06-.21-.09-.31Zm8.83-37.46c.04-.07.09-.14.13-.21,4.26-1.16,8.54-1.8,12.8-1.52-1.5,3.07-3.26,6.08-4.96,8.99-.77,1.31-1.54,2.64-2.3,3.98-4.44-.75-8.94-.38-13.45.57.86-1.31,1.74-2.6,2.6-3.88,1.48-2.17,3-4.42,4.39-6.68.26-.42.52-.83.78-1.25Zm3.2-9.01c-.14-1.87-.68-3.78-1.29-5.66,4.15-1.25,8.36-2.08,12.62-2.18,1.08,4.77,1.4,8.82-1.25,14.43-4.2-.32-8.41.25-12.59,1.33,1.46-2.36,2.74-4.85,2.51-7.91Zm-1.78-7.17c-.48-1.45-.99-2.95-1.31-4.37-.76-3.3-.85-6.46-.55-9.57,4.08-1.35,8.25-2.34,12.51-2.8-.11,2.79.05,5.6.66,8.48.35,1.63.72,3.11,1.08,4.55.2.8.39,1.57.57,2.32-4.29.12-8.51.95-12.68,2.21-.09-.28-.18-.55-.28-.83Zm1.1-28.02c.06-.24.13-.49.19-.73,3.69-1.42,7.54-2.6,11.51-3.41-.19,1.12-.38,2.24-.58,3.35-.69,3.85-1.35,7.59-1.55,11.34-4.24.45-8.39,1.43-12.45,2.75.42-3.62,1.33-7.19,2.26-10.87.21-.81.41-1.62.62-2.44Zm3.38-15.16c3.36-1.53,6.8-2.82,10.3-3.88,0,.64-.03,1.3-.12,1.98-.5,3.86-1.06,8-1.73,12.17-3.94.79-7.75,1.93-11.41,3.31.22-.81.45-1.64.7-2.5.98-3.42,1.99-6.97,2.23-10.33.02-.26.02-.51.03-.76Zm16.32-5.45c1.61-.35,3.24-.63,4.87-.86,0,.44,0,.88-.04,1.33-.29,3.82-.73,7.99-1.32,12.73-.05.43-.11.86-.17,1.29-1.76.07-3.51.17-5.26.35-1.75.17-3.48.44-5.19.76.66-4.09,1.21-8.16,1.7-11.95.1-.79.13-1.55.12-2.29,1.76-.51,3.53-.97,5.31-1.36Zm16.39-1.67c-.05,5.65-.53,11.34-1.01,16.23-3.76-.16-7.55-.23-11.34-.11.05-.39.11-.78.15-1.17.6-4.76,1.03-8.93,1.33-12.76.04-.5.05-1,.05-1.49,3.59-.49,7.21-.76,10.81-.91,0,.07,0,.14,0,.21Zm79.12,47.64c-4.04.21-8.2.71-12.5,1.5,0-2.63-.1-5.31-.38-8.08-.3-2.96-.54-6-.77-8.97,4.18-.41,8.3-.52,12.33-.33.35,2.96.66,5.92.96,8.85.24,2.38.36,4.71.36,7.02Zm-35.07,90.68c.01,1.08.02,2.18,0,3.3-.03,1.95-.21,3.9-.39,5.79-.11,1.18-.22,2.37-.3,3.58-.28.17-.56.33-.84.5-1.92,1.15-3.85,2.31-5.79,3.45-2.03,1.19-4.09,2.36-6.16,3.5.1-.84.23-1.67.35-2.5.24-1.57.48-3.2.55-4.85.08-1.97-.05-3.88-.19-5.73-.11-1.49-.21-2.94-.21-4.4,2.21-1.08,4.42-2.19,6.59-3.35l2.78-1.48c1.2-.64,2.4-1.28,3.6-1.91-.04,1.35-.03,2.71-.02,4.09Zm-40.22,17.92c-.2-1.46-.4-2.88-.47-4.33.63.11,1.24.18,1.85.18,2.76,0,5.54-1.12,9.51-3.16.64-.33,1.29-.66,1.94-.98.03,1.5.16,2.99.29,4.51.1,1.18.21,2.41.28,3.66.12,2.45-.24,4.88-.59,7.24-.14.96-.28,1.92-.4,2.9-.76.42-1.52.85-2.28,1.28-4.74,2.69-7.6,3.92-10.79,3.22.12-.71.25-1.41.38-2.11.42-2.24.85-4.56.8-6.98-.04-1.92-.29-3.7-.53-5.43Zm-33.73-29.67c-.09-1.34.08-2.65.54-4.01.45-1.32,1.34-2.53,2.19-3.69,1.34-1.82,2.72-3.7,2.61-6.14,2.69,2.68,5.39,5.15,9.12,6.93-.08,2.6-1.19,4.49-2.36,6.47-.95,1.61-1.92,3.27-2.45,5.42-.35,1.42-.46,2.67-.42,3.85-4.01-2.54-6.55-5.49-9.23-8.82Zm-7.08-12.12c.45-1.43,1.34-2.5,2.21-3.54,1.11-1.33,2.25-2.7,2.32-4.77,1.48.73,2.89,1.7,4.22,2.96.93.88,1.82,1.77,2.68,2.63.07.07.13.13.2.2.05.29.08.56.09.8.1,2.21-1.15,3.91-2.47,5.72-.89,1.21-1.81,2.46-2.29,3.88-.38,1.12-.58,2.21-.6,3.32-.06-.08-.13-.16-.19-.24-.74-.93-1.5-1.88-2.32-2.87-1.19-1.44-2.53-2.57-3.97-3.42-.41-1.26-.5-2.66.13-4.67Zm4.47-9.41c-.2-1.43-1.41-2.78-2.69-4.22-1.19-1.33-2.42-2.71-2.8-4.14-.32-1.21-.42-2.39-.35-3.55,1.79.55,3.55,1.32,5.26,2.37,1.25.77,2.45,1.54,3.63,2.3.03.02.06.04.09.06-.16.89-.24,1.78-.24,2.65.02,2.56,1.19,4.72,2.32,6.8.6,1.11,1.18,2.18,1.56,3.26-.66-.66-1.32-1.32-2.02-1.98-1.49-1.41-3.07-2.47-4.73-3.24,0-.1-.02-.2-.03-.31Zm8.39-58.62c-.36-1.43-.73-2.91-1.07-4.52-.61-2.84-.76-5.63-.65-8.41,1.74-.16,3.5-.24,5.27-.21,1.8.03,3.61.12,5.41.24-.17,3.75.01,7.16.57,10.38l.27,1.53c.28,1.59.54,3.1.77,4.55-1.54-.26-3.07-.51-4.61-.73-1.8-.26-3.58-.36-5.36-.35-.19-.81-.39-1.64-.61-2.49Zm.48-28.41c1.77-.34,3.56-.61,5.38-.79,1.69-.17,3.39-.27,5.1-.34-.19,1.39-.39,2.77-.59,4.14-.59,4.04-1.15,7.86-1.37,11.8-1.81-.12-3.62-.2-5.43-.24-1.77-.03-3.52.04-5.25.2.21-3.68.86-7.36,1.54-11.15.21-1.2.43-2.41.63-3.62Zm22.56-1.06c-.18,1.77-.37,3.53-.57,5.28-.45,4.02-.88,7.92-1.06,11.83-3.87-.49-7.78-.93-11.71-1.2.22-3.91.77-7.72,1.36-11.74.21-1.41.41-2.84.61-4.27,3.79-.13,7.59-.06,11.36.1Zm52.68,27.35c.25,2.7.46,5.39.57,8.1-1.69.32-3.38.61-5.04.89-2.64.45-5.35.92-8.03,1.52-.12-2.86-.35-5.74-.63-8.69-.3-3.16-.44-6.35-.5-9.53,4.48-.55,8.88-1.27,13-2.05.15,3.24.34,6.52.63,9.76Zm-1.21,26.49c-1.47.36-2.93.71-4.38,1.04-2.9.67-5.89,1.37-8.82,2.22,1.76-6.48,2.14-12.48,1.94-18.52,2.7-.61,5.45-1.09,8.12-1.54,1.63-.28,3.29-.56,4.95-.88.18,5.7-.17,11.5-1.81,17.67Zm-14.77,52.28c-1.9.83-3.8,1.63-5.67,2.42-2.41,1.02-4.87,2.08-7.32,3.17.06-.38.12-.77.16-1.17.15-1.4.28-2.77.4-4.1.39-4.11.76-7.91,1.47-11.75,2.8-1.03,5.64-1.98,8.41-2.9,1.81-.6,3.64-1.22,5.48-1.86-.62,2.87-1.09,5.73-1.58,8.67-.37,2.24-.76,4.56-1.22,6.91-.04.2-.09.4-.13.6Zm-5.24,17.46c-1.89.92-3.77,1.82-5.63,2.71-2.43,1.16-4.92,2.35-7.39,3.57.03-1.86.25-3.75.84-5.74.55-1.84,1.27-3.51,1.98-5.13.91-2.1,1.78-4.12,2.28-6.44,2.59-1.16,5.21-2.28,7.76-3.36,1.71-.72,3.44-1.46,5.17-2.21-.54,1.95-1.34,3.8-2.12,5.59-.9,2.06-1.82,4.18-2.36,6.48-.36,1.54-.5,3.04-.53,4.52Zm-45.13-21.3c0-.27,0-.53-.02-.81-.13-1.52-.7-3.02-1.25-4.48-.57-1.51-1.16-3.07-1.27-4.67-.11-1.64.02-3.24.3-4.82,3.51,1.31,6.79,2.98,9.97,4.6.73.37,1.46.75,2.2,1.12-.18.89-.32,1.79-.41,2.7-.23,2.52.26,4.87.74,7.15.4,1.91.77,3.72.76,5.62,0,.13-.02.25-.02.38-.45-.31-.9-.62-1.34-.93-2.99-2.09-6.09-4.24-9.67-5.87Zm-9.96-7.63c-.33-1.6-1.12-3.07-1.96-4.62-1.09-2.01-2.21-4.08-2.23-6.47,0-.73.07-1.47.18-2.22,3.51,2.26,6.91,4.37,11.05,5.9-.31,1.68-.45,3.38-.34,5.13.11,1.7.72,3.31,1.31,4.87.56,1.47,1.08,2.86,1.2,4.29.01.13,0,.26.01.39-3.74-1.86-6.45-4.48-9.24-7.27Zm10.18-44.35c3.72,1.1,7.42,2.29,11.04,3.45-.14.35-.27.7-.43,1.06-1.61,3.75-3.41,7.5-5.14,11.12-.58,1.2-1.16,2.42-1.74,3.65-3.77-1.58-7.48-3.2-11.12-4.82.8-1.55,1.61-3.1,2.42-4.64,1.46-2.77,2.97-5.63,4.36-8.49.19-.4.4-.86.61-1.33Zm50.92,7.04c-.21.06-.42.12-.62.18-4.82,1.49-8.56,2.34-12.64,2.25,2.06-6.6,2.3-12.69,1.97-19.05,4.21,0,8.09-.7,12.61-1.82.24-.06.48-.11.71-.16.19,6.07-.2,12.08-2.02,18.59Zm-39.65-2.24c.16-.38.31-.75.45-1.12,3.91,1.26,7.9,2.54,11.92,3.7-.04.1-.07.2-.11.3-1.69,4.31-3.55,8.64-5.35,12.83-.54,1.26-1.09,2.53-1.63,3.81-4.1-1.49-8.16-3.09-12.15-4.76.58-1.21,1.15-2.42,1.72-3.62,1.74-3.63,3.54-7.38,5.16-11.15Zm18.68,23.36c-2.01-.2-4.16-.68-6.64-1.49-2.04-.67-4.08-1.38-6.1-2.11.54-1.27,1.08-2.53,1.62-3.77,1.8-4.19,3.67-8.53,5.36-12.85.05-.12.09-.24.14-.37,1.98.56,3.97,1.1,5.95,1.58,2.35.57,4.43.89,6.42,1-.05.15-.09.3-.14.45-1.95,5.62-4.14,11.26-6.27,16.71-.11.28-.22.57-.33.85Zm-13.69-3.18c-1.15,2.71-2.3,5.46-3.39,8.22-1.15,2.92-2.32,5.91-3.02,9.02-.68-.34-1.36-.69-2.03-1.03-3.23-1.65-6.57-3.35-10.16-4.68.6-2.82,1.67-5.58,2.84-8.37,1.12-2.66,2.33-5.32,3.57-7.93,4.01,1.67,8.07,3.27,12.18,4.77Zm-2.71,8.44c1.08-2.74,2.22-5.48,3.38-8.19,2.05.74,4.1,1.46,6.16,2.13,2.45.8,4.59,1.28,6.59,1.5-1.2,3.08-2.42,6.23-3.58,9.36-1.16,3.12-2.21,6.07-2.95,9.01-2.01-.28-4.15-.9-6.69-1.93-2.04-.82-4.02-1.77-5.95-2.74.68-3.12,1.87-6.15,3.04-9.13Zm13.21,5.04c1.18-3.19,2.43-6.4,3.65-9.53.58.04,1.15.07,1.72.07,3.53,0,6.85-.86,11.05-2.31.33-.11.66-.22,1-.33-.07.2-.15.4-.22.6-.97,2.61-1.95,5.22-2.9,7.84-1.15,3.17-1.92,6.15-2.48,9.09-.74.27-1.49.55-2.22.84-5.14,2.01-8.64,2.95-12.49,2.58.74-2.88,1.77-5.77,2.91-8.85Zm16.18-12.44c-4.68,1.62-8.24,2.47-12.26,2.2.08-.22.17-.44.25-.65,2.13-5.45,4.33-11.09,6.28-16.73.08-.22.14-.44.21-.65.26,0,.53.03.79.03,3.94,0,7.62-.85,12.29-2.3.06-.02.11-.03.17-.05-.12.39-.22.78-.35,1.17-1.77,5.55-3.82,11.09-5.83,16.48-.52.17-1.03.33-1.54.51Zm-6.03-16.55c-2-.1-4.11-.41-6.47-.99-1.96-.48-3.92-1.01-5.88-1.56,2.34-6.48,2.56-12.08,2.14-18.2,1.98.39,3.96.77,5.94,1.11,2.23.38,4.29.57,6.26.61.34,6.37.09,12.45-1.99,19.03Zm-13.03-2.75c-4.01-1.16-7.99-2.43-11.9-3.69,2.31-6.16,2.48-11.29,1.94-16.99.93.2,1.86.4,2.78.6,3.05.66,6.16,1.32,9.28,1.94.43,6.12.23,11.71-2.11,18.14Zm-12.57-3.91s0,0,0,0c-3.61-1.17-7.31-2.35-11.03-3.45,2.3-5.59,2.32-10.23,1.54-15.73,3.82.67,7.63,1.46,11.39,2.26.58,5.81.43,10.78-1.9,16.93Zm-7.88,17.13c-1.23,2.62-2.45,5.27-3.57,7.93-1.16,2.78-2.24,5.54-2.86,8.38-4.12-1.54-7.53-3.68-11.07-5.96.5-2.52,1.54-5.01,2.66-7.54,1.02-2.31,2.2-4.75,3.69-7.64,3.65,1.63,7.37,3.25,11.14,4.83Zm7.31,32.72c-.46-2.23-.94-4.53-.72-6.94.07-.82.2-1.63.36-2.44,1.89.94,3.82,1.86,5.82,2.67,2.56,1.04,4.74,1.67,6.8,1.95-.36,1.51-.64,3.03-.8,4.58-.24,2.29,0,4.58.24,6.79.21,2.03.44,4.12.27,6.14,0,.05-.01.09-.02.14-1.69-.66-3.5-1.66-4.88-2.41-.33-.18-.65-.36-.93-.51-1.9-1.02-3.67-2.18-5.4-3.36.02-.28.05-.56.05-.85,0-1.98-.39-3.9-.78-5.77Zm12.4,6.54c-.23-2.18-.47-4.43-.24-6.65.16-1.54.45-3.05.81-4.57.6.06,1.2.1,1.79.1,3.36,0,6.67-.96,11.11-2.7.6-.23,1.21-.46,1.82-.69-.67,3.72-1.02,7.41-1.4,11.39-.13,1.33-.26,2.69-.4,4.09-.06.55-.15,1.08-.25,1.6-.46.21-.92.4-1.37.61-.73.34-1.53.77-2.37,1.23-2.26,1.23-4.82,2.63-7,2.63h-.03c-.65,0-1.42-.18-2.23-.45.01-.11.03-.22.04-.33.17-2.09-.05-4.22-.27-6.27Zm24.24-18.37c-2.64.88-5.35,1.79-8.03,2.76.55-2.77,1.29-5.58,2.37-8.56.95-2.62,1.93-5.22,2.9-7.83.14-.37.28-.76.42-1.13,3.02-.98,6.1-1.84,9.09-2.66,1.52-.42,3.06-.85,4.61-1.3-.5,1.36-1,2.72-1.49,4.06-.51,1.39-1.03,2.79-1.54,4.18-1.06,2.89-1.82,5.69-2.45,8.47-1.97.69-3.94,1.35-5.88,2Zm6.56-18.1c-2.82.78-5.72,1.59-8.58,2.5,1.95-5.23,3.93-10.6,5.65-15.98.17-.55.33-1.08.49-1.62,3.05-.9,6.17-1.63,9.2-2.34,1.32-.31,2.66-.62,4-.95-.05.18-.09.35-.15.53-1.62,5.53-3.55,11.03-5.51,16.42-1.71.5-3.42.97-5.1,1.44Zm-1.66-43.78c.28,2.98.52,5.89.63,8.78-.28.07-.57.13-.85.2-4.47,1.11-8.32,1.8-12.48,1.8-.14-2.4-.36-4.85-.58-7.38l-.2-2.32c-.28-3.24-.35-6.49-.31-9.73,4.37,0,8.86-.33,13.29-.85.07,3.16.21,6.35.5,9.51Zm-14.19,1.13l.2,2.32c.22,2.51.43,4.94.57,7.32-1.93-.04-3.93-.23-6.11-.6-2.03-.35-4.07-.74-6.11-1.14-.15-1.93-.35-3.91-.56-5.99-.09-.9-.19-1.82-.28-2.75-.32-3.31-.38-6.62-.31-9.91,1.94.24,3.88.46,5.81.65,2.1.2,4.27.3,6.47.31-.03,3.26.04,6.53.32,9.8Zm-12.98-.78c.09.94.19,1.86.28,2.76.21,2.01.4,3.92.54,5.78-3.05-.61-6.09-1.26-9.08-1.9-1-.21-2-.43-3.01-.64-.2-1.97-.48-4-.78-6.18l-.12-.89c-.49-3.59-.58-7.09-.46-10.59,1.8.23,3.59.47,5.36.71,2.29.31,4.61.62,6.95.91-.07,3.33-.01,6.69.31,10.06Zm-12.87-.99l.12.89c.29,2.11.56,4.07.76,5.93-3.76-.8-7.58-1.58-11.42-2.26-.23-1.53-.51-3.12-.8-4.8l-.27-1.53c-.55-3.17-.73-6.52-.57-10.22,3.92.27,7.84.71,11.71,1.2-.13,3.55-.04,7.11.46,10.78Zm-15.98,4.42c1.61.23,3.21.49,4.82.77.8,5.51.8,10.1-1.49,15.66-1.78-.52-3.55-1.03-5.33-1.49-1.44-.37-2.88-.63-4.32-.77,2.59-5.61,2.26-9.84,1.23-14.51,1.69,0,3.39.1,5.1.34Zm-2.18,15.62c1.74.45,3.49.95,5.23,1.46-.19.43-.39.86-.56,1.23-1.39,2.85-2.89,5.71-4.35,8.47-.82,1.56-1.64,3.12-2.44,4.68-1.3-.58-2.59-1.16-3.86-1.73-1.91-.86-3.84-1.46-5.78-1.84.72-1.27,1.45-2.52,2.18-3.75,1.76-3,3.57-6.1,5.11-9.29,1.49.14,2.98.39,4.47.77Zm-6.27,14.75c1.27.57,2.54,1.14,3.83,1.72-1.49,2.89-2.67,5.34-3.69,7.65-1.1,2.48-2.12,4.92-2.65,7.42-1.14-.73-2.29-1.48-3.49-2.21-1.82-1.11-3.68-1.93-5.57-2.49.28-2.49,1.28-4.93,2.44-7.52.98-2.17,2.1-4.3,3.28-6.39,1.97.37,3.93.96,5.86,1.83Zm7.15,51.39c.5-2.05,1.45-3.67,2.37-5.23,1.17-1.99,2.27-3.89,2.43-6.49,3.4,1.59,6.39,3.66,9.28,5.68.56.39,1.12.78,1.69,1.17-.28,2.48-1.35,4.48-2.48,6.58-.93,1.72-1.88,3.5-2.41,5.62-.45,1.79-.49,3.45-.35,5.03-.73-.59-1.46-1.19-2.17-1.78-2.67-2.22-5.43-4.51-8.6-6.37-.05-.03-.09-.06-.14-.08-.08-1.26,0-2.58.38-4.13Zm11.57,7.5c.51-2.03,1.45-3.77,2.35-5.45,1.06-1.98,2.14-4.02,2.5-6.48,1.64,1.11,3.34,2.21,5.15,3.19.29.15.6.33.93.51,1.52.83,3.38,1.86,5.13,2.52-.38,2.52-1.42,4.67-2.53,6.93-.91,1.85-1.84,3.77-2.38,5.91-.42,1.66-.55,3.19-.53,4.68-1.77-.47-3.69-1.41-6.08-2.89-1.69-1.04-3.27-2.23-4.8-3.44-.22-1.73-.23-3.5.26-5.47Zm11.84,7.3c.52-2.07,1.44-3.95,2.33-5.77,1.07-2.18,2.16-4.42,2.58-7.01.83.27,1.62.44,2.32.44h.03c2.37,0,5.01-1.44,7.34-2.72.83-.46,1.62-.88,2.33-1.21.29-.14.59-.26.89-.39-.5,2.05-1.29,3.88-2.12,5.79-.71,1.63-1.44,3.33-2.01,5.21-.66,2.2-.86,4.26-.87,6.3-.76.38-1.51.76-2.26,1.14-4.81,2.47-7.75,3.55-11.07,2.9-.03-1.49.1-3.03.51-4.68Zm13.5,16.94c.35-2.39.72-4.85.59-7.38-.06-1.27-.17-2.5-.28-3.69-.14-1.62-.28-3.21-.29-4.81,2.57-1.28,5.16-2.51,7.69-3.72,1.75-.84,3.54-1.69,5.32-2.56,0,1.39.1,2.76.2,4.11.13,1.83.27,3.72.18,5.65-.07,1.62-.31,3.22-.54,4.78-.15.99-.3,2-.41,3.02-2.02,1.11-4.04,2.21-6.03,3.28-2.23,1.2-4.51,2.44-6.77,3.69.1-.8.22-1.59.33-2.38Zm22.78-27.95l-2.78,1.48c-2.05,1.09-4.15,2.15-6.24,3.18.04-1.31.18-2.63.5-4.01.53-2.24,1.44-4.33,2.33-6.36.87-1.99,1.76-4.03,2.3-6.24,1.95-.85,3.89-1.73,5.8-2.66l.07-.04c2.26-1.09,4.53-2.19,6.82-3.26-.5,1.54-1.16,3.02-1.81,4.46-.68,1.51-1.38,3.07-1.9,4.69-.73,2.28-1.02,4.46-1.14,6.64-1.32.7-2.64,1.4-3.97,2.11Zm1.68-15.28l-.07.04c-1.74.84-3.52,1.65-5.3,2.43,0-.04.02-.07.02-.11.46-2.36.84-4.69,1.22-6.93.51-3.08,1.01-6.07,1.67-9.06,1.92-.68,3.84-1.38,5.72-2.14,2.63-1.06,5.29-2.1,7.99-3.11-.55,2.12-1.06,4.24-1.55,6.32-.7,2.95-1.43,6-2.27,9.02-2.49,1.16-4.96,2.36-7.42,3.54Zm2.99-16.44c-1.73.7-3.5,1.35-5.27,1.97.6-2.62,1.33-5.25,2.32-7.95.51-1.39,1.02-2.79,1.54-4.18.56-1.51,1.12-3.03,1.67-4.55,2.08-.61,4.17-1.26,6.22-1.98,2.31-.82,4.75-1.64,7.28-2.44-.86,2.45-1.76,4.95-2.71,7.53-1.02,2.76-1.84,5.54-2.58,8.31-2.86,1.06-5.68,2.17-8.47,3.29Zm6.24-17.36c-1.87.66-3.77,1.26-5.68,1.83,1.91-5.24,3.78-10.59,5.35-15.97.09-.31.17-.62.25-.92,1.98-.49,3.96-1.02,5.9-1.64,2.3-.73,4.55-1.39,6.76-1.97-1.22,5.23-2.85,10.52-4.78,16.08-2.73.85-5.34,1.73-7.81,2.6Zm5.61-17.39c-1.8.57-3.64,1.07-5.47,1.53,1.59-6.16,1.91-11.94,1.73-17.62,1.67-.33,3.33-.69,4.98-1.13,2.72-.73,5.39-1.33,8.02-1.84-.09,5.82-.84,11.39-2.09,16.98-2.34.61-4.72,1.3-7.16,2.07Zm1.04-17.9c-1.59.42-3.2.78-4.82,1.1-.11-2.69-.32-5.35-.57-8.02-.3-3.25-.48-6.56-.64-9.82,1.58-.3,3.12-.61,4.6-.91,2.84-.58,5.68-1.01,8.49-1.31.23,2.96.48,5.99.77,8.96.28,2.79.39,5.49.37,8.14-2.69.52-5.42,1.13-8.21,1.87Zm7.71-19.76c-.42-5.36-.88-10.87-1.63-16.24,3.85-.02,7.66.16,11.43.65,1.11,4.97,1.88,10.11,2.5,15.26-4.02-.19-8.14-.08-12.3.33Zm-.7.08c-2.84.3-5.7.74-8.57,1.32-1.45.3-2.95.59-4.49.89-.05-1.12-.1-2.24-.15-3.35-.2-4.77-.42-9.69-.89-14.52,4.2-.35,8.36-.6,12.46-.65.76,5.38,1.22,10.93,1.64,16.31Zm-13.92-1.11c.05,1.14.1,2.29.15,3.45-4.12.77-8.51,1.5-12.98,2.05-.05-2.63-.05-5.24-.05-7.82,0-3.63,0-7.35-.13-11.07,1.64-.15,3.27-.3,4.9-.45,2.42-.23,4.83-.45,7.22-.66.46,4.82.69,9.73.89,14.49Zm-13.58-2.32c0,2.6,0,5.25.05,7.91-4.42.52-8.91.85-13.27.86.05-3.23.19-6.45.34-9.61.14-3.07.28-6.22.33-9.37,4.15-.13,8.31-.43,12.43-.8.13,3.69.13,7.4.13,11.01Zm-13.6-.88c-.14,3.17-.29,6.39-.34,9.63-2.18-.02-4.32-.11-6.41-.31-1.95-.19-3.91-.41-5.86-.65.1-3.75.37-7.46.64-11.11.17-2.31.33-4.69.47-7.1,1.94.1,3.89.18,5.82.23,2,.05,4,.05,6.01,0-.05,3.13-.19,6.26-.33,9.31Zm-12.67-2.49c-.27,3.64-.54,7.34-.64,11.08-2.31-.29-4.61-.6-6.87-.9-1.8-.24-3.61-.48-5.43-.72.18-3.91.61-7.82,1.06-11.84.2-1.77.39-3.54.57-5.33,2.4.11,4.8.24,7.16.37,1.52.09,3.06.17,4.61.25-.13,2.38-.3,4.76-.47,7.08Zm-44.24,53.69c-1.14,2.03-2.23,4.11-3.19,6.23-1.14,2.53-2.16,5.03-2.48,7.61-4.6-1.23-9.4-1.03-14.26-.11.41-2.08,1.37-4.17,2.42-6.28,1.14-2.29,2.48-4.51,3.88-6.68,4.58-1.03,9.14-1.47,13.63-.76Zm1.7,63.97c-1.66-1.63-3.24-3.16-3.83-5.68-.16-.68-.19-1.35-.15-2.03,1.2.94,2.29,2.13,3.23,3.61.72,1.13,1.38,2.22,2.02,3.27.29.48.58.95.87,1.42-.09.51-.16.99-.21,1.44-.61-.72-1.27-1.38-1.93-2.02Zm1.88-1.2c-.64-1.06-1.31-2.15-2.03-3.29-1.08-1.69-2.34-3.01-3.75-4.04.13-.91.37-1.81.6-2.7.51-1.94,1.04-3.94.45-5.98-.43-1.48-1.05-2.64-1.59-3.67-.22-.42-.44-.82-.63-1.22,1.06.74,2.06,1.65,2.97,2.76.81.98,1.57,1.94,2.31,2.86.27.33.53.66.79.99.14,1.64.63,3.18,1.15,4.8.23.71.47,1.45.68,2.23.69,2.49.2,4.78-.33,7.2-.06.27-.11.55-.17.82-.15-.25-.31-.51-.46-.76Zm1.33.09c.52-2.4,1.06-4.89.32-7.54-.22-.79-.46-1.53-.69-2.25-.39-1.2-.76-2.35-.97-3.52,2.56,3.14,5.14,5.92,9.12,8.35.13,1.47.48,2.85.84,4.33.19.76.39,1.56.57,2.43.56,2.6.06,5-.46,7.55-.15.73-.3,1.46-.42,2.21-4.04-2.99-6.33-6.28-8.63-9.99.1-.52.21-1.04.32-1.55Zm9.42,9.48c.51-2.5,1.05-5.09.46-7.84-.19-.87-.39-1.68-.58-2.45-.32-1.3-.61-2.48-.76-3.68,2.99,1.8,5.63,3.99,8.2,6.11.89.74,1.81,1.49,2.73,2.23.15,1.07.36,2.1.57,3.13.4,1.94.81,3.94.76,6.1-.05,1.74-.44,3.38-.86,5.11-.24,1-.48,2.01-.66,3.06-.68-.65-1.34-1.3-2-1.95-2.54-2.5-5.17-5.09-8.28-7.25-.01,0-.03-.02-.04-.03.13-.86.3-1.7.47-2.53Zm11.2,8.87c.41-1.69.83-3.44.88-5.26.06-2.24-.36-4.29-.77-6.26-.16-.78-.32-1.56-.45-2.33,1.37,1.06,2.78,2.09,4.28,3.02,2.53,1.57,4.57,2.55,6.47,3.02.06,1.54.27,3.05.48,4.59.24,1.71.48,3.47.52,5.35.05,2.35-.38,4.63-.79,6.83-.13.68-.25,1.36-.37,2.06-1.78-.53-3.72-1.64-6.17-3.43-1.72-1.25-3.3-2.66-4.82-4.09.17-1.19.45-2.35.72-3.48Zm12.67,24.73c-.75-2.05-1.53-4.17-1.91-6.5-.36-2.2-.21-4.3.09-6.34.61.13,1.22.2,1.82.2,2.68,0,5.43-1.24,9.43-3.51.61-.35,1.22-.69,1.84-1.03-.15,1.63-.2,3.3,0,5,.31,2.51,1.06,4.86,1.79,7.13.54,1.7,1.09,3.43,1.46,5.23-.31.19-.63.38-.94.58-5.42,3.37-8.42,4.99-12.16,3.47-.4-1.47-.91-2.87-1.41-4.24Zm13.73-5.26c-.72-2.24-1.46-4.56-1.76-7-.22-1.81-.14-3.59.04-5.33,2.41-1.34,4.84-2.65,7.21-3.94,1.85-1,3.73-2.02,5.61-3.05-.08,1.05-.12,2.11-.05,3.2.18,2.79.92,5.44,1.63,8,.5,1.79,1,3.64,1.32,5.52-2.06,1.27-4.12,2.51-6.15,3.74-2.12,1.28-4.28,2.59-6.44,3.92-.37-1.74-.91-3.42-1.43-5.05Zm13.38-8.31c-.7-2.53-1.43-5.15-1.6-7.86-.08-1.21-.03-2.39.08-3.56,2.22-1.22,4.43-2.47,6.61-3.75,1.95-1.14,3.88-2.3,5.8-3.46.14-.09.29-.17.43-.26-.08,1.79-.07,3.6.17,5.43.25,1.91.7,3.79,1.14,5.6.4,1.65.8,3.35,1.06,5.07-2.65,1.8-5.38,3.64-8.13,5.41-1.41.9-2.84,1.79-4.27,2.68-.32-1.82-.81-3.58-1.29-5.3Zm13.32-8.02c-.44-1.8-.89-3.66-1.13-5.53-.26-1.97-.25-3.87-.14-5.78,4.26-2.56,8.47-5.05,12.73-7.3.16,4.4.64,8.68,1.14,13.11.09.83.19,1.66.28,2.5-3.92,2.4-7.77,5.01-11.69,7.67-.06.04-.11.08-.17.12-.26-1.63-.64-3.24-1.02-4.8Zm-.5-29.7c.13-1.99.42-3.98,1.08-6.04.51-1.59,1.2-3.13,1.87-4.61.74-1.65,1.5-3.36,2.03-5.16,4-1.86,8.05-3.65,12.18-5.19-.02.06-.04.12-.07.19-.49,1.34-1.08,2.67-1.66,3.95-.85,1.9-1.73,3.86-2.29,5.93-.45,1.65-.68,3.25-.81,4.85-4.13,1.84-8.21,3.91-12.33,6.08Zm5.24-16.71c.78-2.84,1.46-5.7,2.12-8.46.53-2.24,1.07-4.51,1.67-6.79,4.3-1.59,8.69-3.06,13.15-4.27-.47,1.45-.93,2.89-1.39,4.31-1.05,3.31-2.15,6.72-3.33,10.06-4.14,1.53-8.21,3.29-12.23,5.15Zm4.02-16.09c.7-2.59,1.48-5.2,2.43-7.77,1.02-2.76,1.98-5.43,2.89-8.04,4.16-1.28,8.59-2.46,13.19-3.37-.87,2.52-1.79,5-2.71,7.44-.93,2.47-1.79,4.99-2.61,7.49-4.48,1.2-8.88,2.66-13.19,4.24Zm5.61-16.64c1.91-5.53,3.52-10.79,4.72-16.02,4.44-1.14,8.7-1.99,12.8-2.55-1.12,5.24-2.65,10.32-4.34,15.25-4.59.89-9.01,2.05-13.18,3.32Zm4.9-16.79c1.23-5.56,1.95-11.11,2.03-16.92,4.3-.8,8.46-1.3,12.5-1.52-.04,5.49-.7,10.79-1.75,15.92-4.09.54-8.35,1.38-12.77,2.51Zm15.24-18.48c4.18-.18,8.21-.05,12.09.4.03,5.07-.52,10.03-1.44,14.82-3.96-.11-8.08.11-12.38.65,1.04-5.12,1.68-10.4,1.72-15.87Zm-1.39-17.2c-.61-5.13-1.37-10.25-2.47-15.21,3.37.47,6.71,1.19,10.02,2.24,1.74,4.84,3.09,9.63,4.09,14.52-3.75-.81-7.64-1.33-11.64-1.56Zm8.4-12.69c3.09,1.03,6.14,2.36,9.17,4.03,2.12,4.27,3.98,8.86,5.39,13.76-3.35-1.41-6.89-2.54-10.58-3.38-.97-4.86-2.29-9.62-3.99-14.42Zm-1.13-1.07c-3.27-.99-6.57-1.68-9.9-2.13-.08-.35-.15-.71-.24-1.06-1.12-4.65-2.71-8.96-4.52-13.22,3.06.87,6.04,1.96,8.93,3.36,2.24,4.45,4.14,8.78,5.72,13.06Zm-15.53-16.66c1.9,4.4,3.56,8.84,4.71,13.63.06.26.12.53.18.8-3.77-.47-7.57-.65-11.37-.64-.04-.26-.07-.53-.11-.79-.81-5.27-2.2-10.12-3.85-14.94,3.55.41,7.04,1.04,10.44,1.95Zm-7.3,13.1c.03.23.06.46.09.69-4.14.04-8.3.29-12.43.62-.02-.22-.04-.45-.06-.67-.62-5.74-1.96-11.15-3.46-16.39,4.03.01,8.02.18,11.93.6,1.68,4.89,3.11,9.81,3.93,15.14Zm-25.95-.07c.05.87.08,1.74.12,2.61-4.11.36-8.25.67-12.39.79.01-.92.02-1.83.01-2.74v-1.99c-.04-4.43-.07-9-.47-13.41.99-.06,1.98-.11,2.96-.17,2.77-.16,5.55-.33,8.34-.46.79,5.22,1.16,10.65,1.44,15.37Zm-12.98-1.32v1.99c.02.92.01,1.84,0,2.76-2.01.05-4.01.06-6,0-1.92-.05-3.87-.13-5.8-.23.02-.41.05-.81.07-1.22.24-5.34.48-10.86.22-16.22,1.81-.04,3.63-.09,5.43-.17,1.85-.08,3.73-.18,5.62-.29.41,4.4.44,8.95.46,13.38Zm-12.44,3.31c-.02.39-.05.78-.07,1.17-1.55-.08-3.09-.17-4.61-.25-2.36-.13-4.74-.27-7.13-.37.48-4.9.95-10.59,1-16.26,0-.08,0-.16,0-.24,2.69-.1,5.37-.16,8.02-.21.99-.02,2-.04,3.01-.06.26,5.33.02,10.84-.22,16.22Zm-2.8-16.87c-2.65.05-5.34.1-8.03.21-.12-2.81-.83-5.4-1.52-7.92-.63-2.27-1.26-4.6-1.46-7.07,3.47-.54,6.99-1.02,10.54-1.48.25,2.76,1,5.35,1.72,7.86.77,2.67,1.56,5.42,1.74,8.35-1,.02-2,.04-2.99.06Zm-10.24-7.52c.68,2.48,1.38,5.03,1.5,7.76-3.6.15-7.22.41-10.82.9-.12-2.5-.73-4.83-1.33-7.08-.58-2.17-1.17-4.39-1.31-6.78,3.44-.76,6.94-1.39,10.49-1.96.21,2.52.85,4.87,1.48,7.15Zm-11.34,1.76c.6,2.24,1.21,4.55,1.31,7-1.67.24-3.34.52-5,.89-1.74.38-3.47.82-5.19,1.32-.14-2.26-.7-4.32-1.26-6.33-.61-2.18-1.22-4.43-1.28-6.91,3.28-1.09,6.65-2,10.08-2.78.16,2.41.75,4.64,1.33,6.81Zm-10.81,3.07c.58,2.11,1.14,4.13,1.25,6.35-3.49,1.05-6.93,2.33-10.29,3.84-.06-2.06-.51-3.93-.95-5.76-.58-2.4-1.12-4.68-.85-7.33,3.09-1.55,6.28-2.85,9.55-3.96.09,2.48.69,4.7,1.29,6.87Zm-13.05,25.72c-.02.08-.04.15-.06.23-.2.82-.41,1.63-.62,2.44-.97,3.81-1.91,7.51-2.32,11.28-4.37,1.47-8.66,3.33-12.87,5.35.66-3.7,1.95-7.34,3.22-10.91.34-.96.68-1.92,1-2.87,3.65-2.01,7.55-3.9,11.64-5.52Zm-25.54,62.17c4.74-1.75,9.54-3.52,14.33-4.69-1.27,1.99-2.47,4.03-3.52,6.14-1.12,2.26-2.14,4.49-2.54,6.74-4.89.99-9.84,2.67-14.73,4.33-.1.04-.21.07-.31.1.45-2.1,1.51-4.19,2.61-6.2,1.22-2.21,2.65-4.35,4.15-6.43Zm21.48,67.28c-.2-2.25-.41-4.59-1.3-6.83-.17-.44-.39-.83-.61-1.2,4.99-.43,9.51.02,12.94,2.39-.02,1.41.2,2.71.7,3.98.37.93.87,1.77,1.56,2.64.06.5.12,1.01.18,1.52.27,2.46.56,5,1.63,7.47,0,.01.01.02.02.03-3.03-2.61-7.47-3.58-13.73-3.03-.95-2.31-1.17-4.68-1.37-6.98Zm12.38-1.91c-.37-.94-.58-1.9-.64-2.92.25.45.46.93.64,1.45.31.93.51,1.87.67,2.82-.27-.44-.49-.88-.67-1.35Zm-.63-4.24c.03-.42.08-.87.14-1.34,2.25,3.58,4.6,6.78,8.68,9.71-.23,1.68-.29,3.42.12,5.25.52,2.3,1.64,4.17,2.73,5.98.31.52.62,1.03.91,1.54-3.29-3.53-4.91-7.44-6.74-11.86-.46-1.12-.94-2.27-1.45-3.44-1.04-2.38-2.45-4.15-4.12-5.45-.09-.13-.18-.27-.27-.4Zm12.28,19.23c-1.06-1.76-2.15-3.58-2.64-5.77-.36-1.59-.33-3.12-.15-4.62,2.95,2.09,5.48,4.58,7.93,6.99.78.76,1.57,1.53,2.38,2.3-.12.98-.17,1.98-.08,3.02.25,2.89,1.42,5.28,2.55,7.59.39.79.76,1.57,1.1,2.35-.3-.41-.62-.83-.96-1.24-1.55-1.88-3.44-3.34-5.26-4.75-.9-.7-1.83-1.41-2.71-2.18-.1-.09-.19-.17-.29-.26-.54-1.22-1.21-2.34-1.87-3.44Zm14.84,33.61c-.88-3.6-1.07-7.09-1.25-10.77-.11-2.11-.22-4.29-.47-6.47-.01-.11-.04-.22-.05-.34,1.12,1.67,2.29,3.26,3.96,4.76,2.09,1.88,3.84,3.13,5.45,3.86.31,1.23.54,2.49.61,3.86l.08,1.65c.23,5.03.46,9.81,1.49,14.69-1.8-1.3-3.65-3.2-4.82-4.39l-.39-.4c-2-2.03-3.32-4.28-4.59-6.46Zm9.02-3.47l-.08-1.65c-.06-1.23-.25-2.39-.51-3.51.88.3,1.72.45,2.56.45,2.81,0,5.64-1.6,9.76-4.17.23-.15.47-.29.71-.44.11.67.2,1.34.25,2.03.06.92.12,1.84.18,2.76.3,4.82.59,9.39,1.62,14.08-.52.35-1.04.7-1.56,1.05-.55.38-1.21.9-1.96,1.5-2.11,1.69-4.99,4-7.08,4-.03,0-.07,0-.1,0-.58-.02-1.31-.3-2.16-.82-1.15-5.07-1.39-10.04-1.64-15.29Zm13.58-4.57c-.06-.92-.11-1.84-.18-2.76-.05-.81-.16-1.6-.31-2.38,2.22-1.37,4.47-2.73,6.66-4.06,1.94-1.17,3.91-2.36,5.89-3.58.04.29.09.58.12.88.16,1.59.28,3.2.41,4.76.31,4.02.64,8.17,1.57,12.29-2.63,1.8-5.28,3.59-7.92,5.37-1.57,1.06-3.13,2.11-4.69,3.17-.97-4.54-1.26-9-1.55-13.7Zm14.79,4.72c-.87-3.96-1.17-7.83-1.49-11.91-.12-1.56-.25-3.17-.41-4.78-.04-.41-.11-.81-.17-1.22,1.52-.94,3.04-1.88,4.54-2.84,2.66-1.71,5.29-3.48,7.86-5.22.23,1.89.41,3.79.57,5.63.33,3.71.68,7.54,1.53,11.32,0,.03.02.06.02.09-1.99,1.5-4.56,3.42-7.19,5.27-1.75,1.23-3.51,2.45-5.27,3.66Zm13.07-9.39c-.81-3.66-1.15-7.39-1.47-11-.17-1.92-.35-3.91-.6-5.88,0-.05-.02-.09-.02-.14.15-.1.3-.2.45-.3,3.82-2.59,7.57-5.14,11.37-7.48.1.9.19,1.81.28,2.72.39,3.95.88,8.19,1.85,12.47.05.21.11.44.18.67-3.37,2.36-6.75,4.92-10.01,7.39l-2.04,1.54Zm10.32-25.98c-.08-.73-.16-1.46-.24-2.18-.51-4.53-1-8.9-1.14-13.4,4.01-2.08,8.09-3.92,12.33-5.38.2,4.74.7,9.49,1.31,14.66-4.25,1.75-8.29,3.91-12.26,6.31Zm11.65-21.21c4.16-1.38,8.5-2.37,13.1-2.85.2,4.27.68,8.87,1.42,13.84-4.7.71-9.07,1.97-13.23,3.64-.61-5.15-1.1-9.89-1.29-14.63Zm13.07-3.56c-4.6.47-8.93,1.45-13.09,2.82-.09-2.77-.09-5.55.07-8.43.12-2.15.36-4.24.72-6.3,4.16-1.08,8.46-1.77,12.96-1.96-.34,1.95-.58,3.96-.67,6.05-.1,2.49-.09,5.1.02,7.82Zm-13.73-5.65c-.16,2.98-.16,5.85-.06,8.71-4.25,1.45-8.32,3.27-12.33,5.34-.05-2.07-.02-4.16.12-6.33.1-1.58.11-3.14.13-4.65.01-1.55.03-3.06.13-4.57,4.16-1.83,8.36-3.41,12.71-4.58-.34,1.99-.58,4.02-.69,6.07Zm-11.96-2.29c.13-1.44.35-2.87.75-4.34.55-2.02,1.42-3.96,2.26-5.83.58-1.29,1.18-2.63,1.68-4,.09-.25.17-.5.26-.75,3.85-1.41,7.77-2.6,11.77-3.45-1.66,4.48-3.08,9.07-3.94,13.82-4.38,1.16-8.61,2.72-12.78,4.55Zm5.25-15.77c1.11-3.17,2.15-6.39,3.15-9.53.5-1.57,1.01-3.16,1.53-4.75,4.14-1.09,8.36-1.96,12.64-2.49-.37.87-.74,1.74-1.11,2.6-1.52,3.55-3.05,7.14-4.44,10.79-4,.83-7.92,1.99-11.76,3.37Zm4.94-15.08c.78-2.35,1.58-4.71,2.46-7.03.97-2.58,1.93-5.19,2.85-7.85,4.14-.78,8.42-1.34,12.77-1.53-.78,2.28-1.6,4.51-2.42,6.66-.94,2.45-1.95,4.89-2.97,7.3-4.3.51-8.53,1.36-12.69,2.44Zm5.57-15.65c1.68-4.92,3.18-9.97,4.29-15.2,4.3-.55,8.43-.78,12.39-.67-1,5-2.38,9.82-3.93,14.39-4.34.18-8.62.71-12.75,1.48Zm7.38-80.29c1.9,2.36,3.88,4.92,5.85,7.66-2.07-1.42-4.21-2.66-6.39-3.73-1.56-3.09-3.29-6.24-5.2-9.49,2.04,1.7,3.97,3.55,5.74,5.56Zm-27.48-16.09c.85,2.46,1.74,4.89,2.61,7.24.87,2.34,1.71,4.64,2.52,6.94-3.9-.4-7.88-.56-11.88-.57-.42-1.44-.84-2.87-1.26-4.29-.98-3.29-1.99-6.69-2.86-10.16,1.39.08,2.79.14,4.21.16,2.2.02,4.43.26,6.66.68Zm-11.62-.88c.89,3.56,1.92,7.04,2.92,10.41.41,1.37.81,2.73,1.2,4.08-3.31,0-6.65.12-9.98.27-.03-.16-.05-.33-.07-.49-.48-2.94-1.42-5.74-2.32-8.46-.72-2.18-1.46-4.41-1.98-6.72.84.08,1.69.16,2.54.25,2.51.25,5.08.49,7.69.65Zm-10.97-.97c.52,2.42,1.29,4.74,2.04,7.01.89,2.69,1.82,5.47,2.3,8.35.02.13.04.27.06.41-2.76.13-5.52.3-8.27.46-.99.06-1.99.12-2.99.17-.03-.26-.05-.52-.08-.78-.33-2.93-1.16-5.72-1.96-8.41-.74-2.48-1.49-5.04-1.86-7.71,3.61-.07,7.15.17,10.75.5Zm-19.09.22l2.38-.31c1.78-.23,3.52-.36,5.24-.41.37,2.75,1.14,5.36,1.89,7.9.79,2.66,1.61,5.41,1.93,8.28.03.25.05.49.07.74-1.87.11-3.74.21-5.58.29-1.8.08-3.62.13-5.43.17-.18-3.01-.99-5.82-1.77-8.53-.72-2.49-1.45-5.05-1.7-7.75.98-.13,1.96-.25,2.95-.38Zm-63.92,24.04c2.13-2.23,4.33-4.22,6.62-6.01-.2,2.19.16,4.16.52,6.09.4,2.15.77,4.21.42,6.54-2.67,1.74-5.26,3.63-7.76,5.67.18-1.78-.02-3.41-.22-5.01-.29-2.38-.57-4.62.42-7.28Zm-1.23,16.2c.44-1.01.72-1.96.88-2.87,2.48-2.06,5.06-3.99,7.72-5.75-.07.31-.15.62-.25.94-1.17,3.71-2.43,7.46-3.65,11.08l-.24.71c-.05.15-.11.31-.16.46-3.08,1.7-5.98,3.46-8.67,5.19.37-.82.73-1.64,1.1-2.46,1.08-2.39,2.19-4.86,3.25-7.3Zm-6.6,14.66c.51-1.08,1.01-2.15,1.48-3.21.07-.17.15-.33.22-.5,2.74-1.77,5.7-3.6,8.86-5.37-.24.7-.49,1.4-.74,2.11-1.34,3.76-2.7,7.6-3.34,11.52-3.15,1.52-6.26,3.13-9.34,4.72l-1.13.58c.94-3.35,2.48-6.63,3.98-9.85Zm-4.23,10.78l1.7-.87c2.94-1.52,5.9-3.05,8.89-4.51-.31,2.3-.36,4.64.02,7,.31,1.91.92,3.83,1.52,5.68.19.59.38,1.18.56,1.77-1.35.62-2.7,1.25-4.04,1.88-2.53,1.18-4.94,2.3-7.34,3.35-.15-.48-.3-.95-.45-1.42-.6-1.87-1.17-3.64-1.4-5.43-.32-2.52-.05-5,.55-7.45Zm2.45,20.01c-.06-1.71-.45-3.39-.94-5.03,2.44-1.06,4.87-2.19,7.43-3.39,1.31-.61,2.63-1.23,3.95-1.83.45,1.56.82,3.14.91,4.71.21,3.69-1.22,6.06-3.15,8.77-.56.24-1.12.48-1.68.72-3.16,1.35-6.19,2.64-9.16,3.74,1.61-2.11,2.75-4.36,2.64-7.69Zm-9.95,16.13c1.44-1.59,2.93-3.24,4.33-4.89.35-.42.7-.82,1.04-1.21.38-.44.75-.86,1.1-1.29,3.34-1.18,6.72-2.62,10.28-4.14.2-.09.4-.17.6-.26-.22.31-.45.62-.68.94-1.31,1.85-2.74,3.7-4.12,5.49-1.23,1.6-2.47,3.22-3.67,4.88-4.18,1.54-8.17,3.01-12.09,4.05,1.06-1.22,2.14-2.41,3.21-3.59Zm-8.92,11.04c1.43-2.27,3.12-4.42,4.9-6.51,3.96-.98,7.97-2.42,12.16-3.96-1.29,1.83-2.52,3.71-3.59,5.65-1.2,2.19-2.36,4.48-2.77,6.8-4.69,1.59-9.17,3.05-13.49,3.84.45-1.96,1.59-3.93,2.78-5.82Zm.74,13.01c-1.7-1.16-3.17-2.17-3.61-4.38-.13-.68-.14-1.37-.05-2.06,4.35-.77,8.83-2.22,13.52-3.8-.08.8-.06,1.6.08,2.4.48,2.71,2.18,4.14,3.81,5.52,1.13.96,2.2,1.87,2.85,3.16-4.54,1.47-8.83,2.76-12.77,3.16,0-.02-.01-.03-.02-.05-.82-1.89-2.34-2.94-3.82-3.95Zm-1.44,13.62c.47-1.47,1.67-2.4,2.83-3.3,1.6-1.24,3.55-2.76,2.69-5.64,3.97-.44,8.27-1.72,12.8-3.19.82,2.31-.4,3.49-1.94,4.97-1.17,1.12-2.49,2.38-2.99,4.34-.23.89-.26,1.68-.17,2.39-4.84,1.41-9.41,2.66-13.36,2.92l.14-2.48Zm3.69,8.69l-.37-.3c-1.67-1.39-2.83-3.13-3.47-5.19,4.02-.25,8.62-1.5,13.5-2.93.34,1.33,1.1,2.41,1.86,3.47.75,1.06,1.53,2.15,1.84,3.47.36,1.52-.36,2.92-1.11,4.4-.21.41-.42.83-.61,1.26-5.19,1.35-10.09,2.55-14.21,2.61.23-.44.51-.88.81-1.34.86-1.32,1.84-2.82,1.77-4.97l-.02-.48Zm.82,13.43c-1.7-.6-3.04-1.07-3.65-2.86-.43-1.26-.36-2.21-.05-3.07,4.13,0,9.01-1.16,14.18-2.5-.48,1.3-.71,2.74-.14,4.39.82,2.41,2.62,3.29,4.36,4.13,1.04.5,2.03,1,2.8,1.8-4.81,1.01-9.3,1.78-13.01,1.48-.97-2.11-2.83-2.78-4.49-3.37Zm16.51,27.66c-4.32-2.48-7.49-4.86-9.59-8.6,5.12.67,9.85.03,13.89-.74,1.96,4.09,4.91,6.98,8.72,9.76-4.21.6-8.44.73-13.03-.43Zm27.13-2.2c-2.46.38-4.81.87-7.07,1.34-2.03.42-4.02.83-6.01,1.15-3.94-2.82-7.01-5.68-9.01-9.75,1.44-.28,2.9-.59,4.31-.9,2.97-.64,6.03-1.3,9.19-1.73.64-.09,1.23-.15,1.79-.2.14.31.29.62.46.92,1.97,3.57,4.92,6.32,8.12,8.94-.58.07-1.17.14-1.77.23Zm5.66-.47c-.92,0-1.89.05-2.88.13-3.35-2.72-6.48-5.52-8.5-9.18-.12-.21-.22-.43-.32-.65,7.02-.58,11.61.82,14.41,4.39v.1s.12.05.12.05c.39.7.8,1.36,1.24,2.01,0,0,0,.01.01.02v.28h.13c.41.91.75,1.92,1.02,3.01l.02.07s.02.09.03.14v.11s.02.02.02.02c0,.02,0,.05.01.07-1.6-.38-3.36-.57-5.3-.57Zm9.17,2.01c-1.18-1.25-2.33-2.56-3.39-3.95-.04-.63-.08-1.26-.11-1.89-.1-1.85-.2-3.76-.53-5.64-.48-2.77-1.92-4.31-3.31-5.79-.42-.45-.85-.91-1.26-1.41-.19-1.44-.43-2.89-.9-4.3-.05-.14-.1-.27-.16-.41,1.01,1.07,1.88,2.38,2.59,3.99.51,1.17.99,2.32,1.45,3.43,2.11,5.11,3.95,9.54,8.38,13.55.35.8.63,1.65.81,2.57.23,1.17.37,2.36.47,3.54-1.02-1.53-2.37-2.77-4.05-3.69Zm8.99,23.72c.77,1.41,1.55,2.84,2.21,4.33-.95-1.37-1.66-2.82-2.21-4.33Zm6.64,9.16c-.94-.9-1.92-1.84-2.92-2.94-.79-2.35-1.99-4.53-3.15-6.65-.53-.97-1.07-1.96-1.58-2.97-.15-.65-.28-1.3-.41-1.97,0,0,0,0,0,0,2.64,2.19,4.92,4.08,6.93,7.33.4.65.78,1.28,1.15,1.91.05.2.09.4.14.6.57,2.12,1.6,4.24,2.6,6.3.47.97.94,1.95,1.38,2.94-1.28-1.79-2.69-3.15-4.15-4.55Zm11.26,17.32l-.25-.32c-1.71-2.11-2.72-4.36-3.8-6.74-.36-.79-.73-1.61-1.13-2.44-.58-2.23-1.63-4.4-2.66-6.53-.63-1.31-1.28-2.64-1.81-3.98.89,1.39,1.89,2.77,3.18,4.07l.39.39c1.32,1.35,3.51,3.59,5.56,4.9.05.23.1.47.16.7.43,1.73,1.21,3.52,2.02,5.42,1.31,3.05,2.66,6.19,2.57,9.1-1.69-1.46-3.38-3.55-4.21-4.59Zm13.78,1.63c-1.82,1.69-4.86,4.52-6.52,4.56-.01,0-.03,0-.04,0-.68,0-1.5-.42-2.34-1.06.3-3.23-1.17-6.63-2.59-9.93-.81-1.87-1.57-3.64-1.99-5.31,0-.01,0-.03,0-.04.72.37,1.36.57,1.92.59.04,0,.08,0,.13,0,2.34,0,5.21-2.3,7.52-4.15.74-.6,1.39-1.11,1.92-1.47.44-.3.88-.6,1.32-.89.02.08.03.16.05.24.36,1.5,1.06,3.16,1.79,4.92,1.32,3.16,2.79,6.69,2.31,9.62l-1.45,1.13c-.55.43-1.23,1.06-2.03,1.8Zm4.8-3.95l-.54.42c.2-2.96-1.18-6.28-2.43-9.28-.72-1.73-1.4-3.36-1.75-4.81-.04-.17-.07-.33-.11-.5,1.64-1.11,3.28-2.22,4.92-3.33,2.57-1.73,5.14-3.47,7.7-5.22.33,1.26.9,2.68,1.52,4.19,1.32,3.24,2.78,6.85,2.1,9.62-3.81,3.02-7.65,6-11.4,8.92Zm15.8-12.43c-1.18.95-2.37,1.9-3.56,2.85.32-2.83-1.04-6.18-2.28-9.22-.64-1.58-1.25-3.08-1.56-4.34,1.84-1.26,3.68-2.54,5.51-3.82,2.54-1.79,5.02-3.64,6.98-5.11.31,1.03.76,2.18,1.23,3.4,1.22,3.11,2.56,6.55,2,9.15-2.7,2.38-5.47,4.79-8.33,7.11Zm10.26-8.81c-.36.32-.73.65-1.1.97.19-2.64-1.04-5.79-2.18-8.67-.51-1.3-.99-2.53-1.28-3.6l2.28-1.73c3.2-2.43,6.5-4.93,9.8-7.24.26.78.59,1.63.93,2.51,1.2,3.08,2.51,6.48,1.84,8.93-3.48,2.79-6.86,5.78-10.3,8.83Zm37.51-23.89c-.24.58-.71,1.01-1.44,1.32-4.6,1.18-8.75,2.86-12.62,4.9,1.33-2.58-.2-6.48-1.48-9.74-.17-.42-.32-.83-.47-1.22,4.54-2.17,9-3.69,13.59-4.66.21.54.46,1.11.7,1.7,1.11,2.61,2.49,5.86,1.72,7.7Zm-2.98-11c.08.29.18.6.3.92-4.59.97-9.05,2.5-13.59,4.66-.21-.59-.39-1.14-.51-1.62-.81-3.4-1.42-7.04-2-11.82-.05-.39-.09-.76-.14-1.14,4.17-1.68,8.54-2.96,13.25-3.67.08.51.15,1.01.23,1.53.58,3.58,1.4,7.32,2.45,11.13Zm-3.45-42.51c-4.5.18-8.79.85-12.95,1.91.88-4.73,2.3-9.27,4.01-13.79,4.28-.86,8.65-1.32,13.14-1.23-1.79,4.22-3.31,8.51-4.2,13.12Zm7.72-20.89c-1.11,2.38-2.21,4.72-3.22,7.07-4.5-.1-8.87.33-13.15,1.16,1.32-3.43,2.78-6.86,4.28-10.35.42-.98.84-1.98,1.27-2.97,4.36-.49,8.79-.63,13.3-.29-.81,1.82-1.65,3.62-2.47,5.38Zm5.48-12.71c-.82,2.27-1.74,4.48-2.7,6.65-4.51-.36-8.94-.24-13.29.23.97-2.3,1.93-4.62,2.82-6.96.86-2.24,1.7-4.56,2.52-6.95,4.21-.15,8.49.05,12.77.7-.64,2.07-1.34,4.17-2.12,6.32Z"/>
</svg>