<?xml version="1.0" encoding="UTF-8"?>
<svg id="Layer_1" data-name="Layer 1" xmlns="http://www.w3.org/2000/svg" viewBox="0 0 250 200.46">
  <defs>
    <style>
      .cls-1 {
        stroke-width: 0px;
      }
    </style>
  </defs>
  <path class="cls-1" d="M125.58,0l-4.72,6.3-.25-.1-.34.88L0,167.53l125.56,32.93,124.44-32.93L125.58,0ZM129.76,33.2l42.72,109.98-42.72,11.31V33.2ZM141.56,37.41l70.73,95.23-30.59,8.1-40.14-103.33ZM120.28,154.22l-42.67-11.19,42.67-109.83v121.02ZM120.28,164.02v25.26l-55.03-14.43,8.91-22.93,46.12,12.1ZM129.76,164.29l46.18-12.22,8.9,22.9-55.07,14.58v-25.25ZM185.15,149.63l33.22-8.79,15.68,21.11-40,10.59-8.9-22.9ZM68.39,140.61l-30.4-7.97L107.52,39.88l-39.13,100.73ZM31.86,140.82l33.08,8.68-8.91,22.93-40-10.49,15.83-21.12Z"/>
</svg>