<?xml version="1.0" encoding="UTF-8"?>
<svg id="Layer_1" data-name="Layer 1" xmlns="http://www.w3.org/2000/svg" viewBox="0 0 165.99 174.71">
  <defs>
    <style>
      .cls-1 {
        fill: #0f7c0f;
      }

      .cls-1, .cls-2, .cls-3, .cls-4, .cls-5, .cls-6, .cls-7, .cls-8 {
        stroke: #0b753b;
        stroke-miterlimit: 10;
      }

      .cls-2 {
        fill: #0e7b0e;
      }

      .cls-3 {
        fill: #fff;
      }

      .cls-3, .cls-5 {
        stroke-width: 1.5px;
      }

      .cls-4 {
        fill: #0d7b0d;
      }

      .cls-5 {
        fill: #10763c;
      }

      .cls-6 {
        fill: #117d11;
      }

      .cls-7 {
        fill: #107c10;
      }

      .cls-8 {
        fill: #127d12;
      }
    </style>
  </defs>
  <path class="cls-3" d="m17.97,168.81c-.26-2.75-.73-5.04-.65-7.32.14-4.01,1.1-8.05.82-12.01-.35-4.83,1.41-8.54,4.24-12.08.65-.82,1.11-1.78,1.68-2.66,4.99-7.65,9.96-15.32,15.04-22.92.4-.59,1.56-1.06,2.3-.97,3.79.44,7.57,1.01,11.33,1.68,5.82,1.03,11.63,2.15,17.44,3.27,5,.97,10,1.99,14.99,3.01,1.47.3,2.15,1.06,2.16,2.74.09,11.46.28,22.93.47,34.39.07,4.26.79,8.28,2.87,12.19,2.46,4.63,6.72,5.67,10.92,5.06.67-.1,1.43-1.61,1.57-2.56.1-.72-.97-1.53-1.09-2.36-.2-1.3-.52-2.93.07-3.92,1.46-2.48,2.19-4.97,2.21-7.85.04-6.46.23-12.93.5-19.38.09-2.26.16-4.69,1.02-6.7,2.31-5.43,5.03-10.68,7.61-15.99.91-1.87,2.01-3.65,2.82-5.56,2.89-6.83,5.68-13.69,8.51-20.54,3.66-8.86,7.35-17.71,10.99-26.58,2.54-6.18,4.99-12.4,7.59-18.57.32-.76,1.19-1.65,1.94-1.81,2.45-.52,4.96-.8,7.46-1.06,3.41-.36,6.66-.97,9.61-2.97,2.7-1.83,3.32-3.48,2.54-6.77-.75-3.15-3.54-4.43-5.26-6.68-.4-.52-.84-1.43-.65-1.91,1.81-4.5.13-8.47-4.45-10.27-1.92-.75-3.82-1.55-5.76-2.35,0-2.17-.08-4.34.03-6.5.09-1.71-.68-2.24-2.23-2.08-2.56.27-2.99,2.49-3.76,4.26-1.08,2.5-2.58,3.65-5.7,3.59.22-1.3.36-2.57.67-3.81.32-1.26.81-2.47,1.25-3.81-3.97-.41-3.87-.27-6.49,1.68-3.57,2.66-3.91,6.98-5.72,10.52-.63,1.24-.49,2.86-.96,4.21-1.11,3.19-2.4,6.33-3.59,9.49-4.45,11.83-8.97,23.64-13.27,35.52-.61,1.68-1.4,1.9-2.83,1.86-7.96-.19-15.93-.35-23.89-.51-7.8-.17-15.59-.39-23.39-.48-6.67-.08-13.35.24-20-.09-6.19-.31-12.17.64-17.71,3.02-5.8,2.5-11.21,5.92-16.72,9.05-.79.45-1.55,1.45-1.76,2.33-.64,2.66-1.36,5.39-1.4,8.09-.08,5.63.1,11.27.53,16.88.12,1.61,1.33,3.23,2.3,4.65.86,1.25,2.52,2.07,3.09,3.39,2.43,5.66,2.11,11.12-1.74,16.2-1.82,2.4-4.62,4.37-4.7,7.69-.13,5.23,0,10.47.2,15.7.08,2.26.24,4.63.99,6.73,1.12,3.16,2.78,6.13,4.24,9.18,2.27,4.76,4.3,8.57,11.16,7.71,1.55-.19,2.83-.3,2.87-2.23.04-1.64.33-3.47-2.29-2.8h-.02Z"/>
  <path class="cls-5" d="m17.97,168.81c2.62-.67,2.33,1.16,2.29,2.8-.05,1.93-1.32,2.03-2.87,2.23-6.86.86-8.89-2.95-11.16-7.71-1.45-3.04-3.11-6.02-4.24-9.18-.75-2.1-.91-4.47-.99-6.73-.19-5.23-.33-10.47-.2-15.7.08-3.32,2.88-5.29,4.7-7.69,3.85-5.08,4.17-10.55,1.74-16.2-.57-1.32-2.23-2.14-3.09-3.39-.98-1.43-2.18-3.04-2.3-4.65-.43-5.61-.61-11.25-.53-16.88.04-2.71.76-5.43,1.4-8.09.21-.88.97-1.88,1.76-2.33,5.52-3.13,10.92-6.56,16.72-9.05,5.54-2.38,11.52-3.33,17.71-3.02,6.65.33,13.33,0,20,.09,7.8.09,15.59.32,23.39.48,7.96.17,15.93.32,23.89.51,1.43.03,2.22-.18,2.83-1.86,4.31-11.88,8.82-23.69,13.27-35.52,1.19-3.17,2.48-6.3,3.59-9.49.47-1.35.32-2.97.96-4.21,1.81-3.55,2.15-7.87,5.72-10.52,2.62-1.95,2.52-2.09,6.49-1.68-.45,1.34-.94,2.55-1.25,3.81-.31,1.23-.45,2.51-.67,3.81,3.12.06,4.62-1.09,5.7-3.59.77-1.77,1.2-4,3.76-4.26,1.56-.16,2.32.36,2.23,2.08-.11,2.16-.03,4.33-.03,6.5,1.94.79,3.84,1.59,5.76,2.35,4.57,1.79,6.25,5.77,4.45,10.27-.19.48.25,1.39.65,1.91,1.72,2.24,4.51,3.53,5.26,6.68.78,3.29.17,4.94-2.54,6.77-2.95,2-6.2,2.62-9.61,2.97-2.5.26-5.01.53-7.46,1.06-.76.16-1.62,1.05-1.94,1.81-2.59,6.16-5.05,12.38-7.59,18.57-3.64,8.87-7.32,17.72-10.99,26.58-2.83,6.85-5.63,13.71-8.51,20.54-.81,1.91-1.91,3.69-2.82,5.56-2.58,5.31-5.3,10.57-7.61,15.99-.86,2.02-.93,4.45-1.02,6.7-.27,6.46-.46,12.92-.5,19.38-.02,2.88-.75,5.37-2.21,7.85-.58.99-.26,2.62-.07,3.92.13.83,1.19,1.64,1.09,2.36-.13.94-.9,2.46-1.57,2.56-4.2.62-8.46-.43-10.92-5.06-2.08-3.91-2.8-7.93-2.87-12.19-.19-11.46-.38-22.92-.47-34.39-.01-1.68-.7-2.44-2.16-2.74-4.99-1.02-9.99-2.04-14.99-3.01-5.81-1.12-11.62-2.24-17.44-3.27-3.76-.66-7.54-1.23-11.33-1.68-.74-.09-1.91.38-2.3.97-5.07,7.6-10.05,15.27-15.04,22.92-.57.88-1.03,1.85-1.68,2.66-2.82,3.54-4.59,7.25-4.24,12.08.28,3.96-.68,8-.82,12.01-.08,2.28.39,4.57.65,7.32h.02Z"/>
  <path class="cls-4" d="m98.51,60.18c4.17-2.85,4.25-7.17,4.89-11.72l-8.93-.09c-.46,2.02-.83,4.28-1.51,6.44-.53,1.68-1.4,3.26-2.23,4.83-.49.93-1.35,1.01-2.17.57,3.44-3.28,3.42-7.82,4.78-12.17-1.97.09-3.58.15-5.18.24-1.04.06-2.02-.02-2.79-1.29,1.13.01,2.06.03,2.99.03.98,0,1.95.02,2.93-.02,2.09-.1,2.22-.3,2.24-2.45,0-.67.27-1.34.42-2.08,1.48.48,1.13,1.57,1.04,2.38-.21,1.86-.7,2.16,1.84,2.28,2.07.1,4.16.08,6.23.04,1.57-.03,1.89.2,1.66,1.72-.3,1.95-.45,3.95-1.07,5.8-.59,1.78-1.66,3.4-2.59,5.06-.49.87-1.29.98-2.55.45Z"/>
  <path class="cls-8" d="m8.88,45.96c.02-.96.53-1.3,1.37-1.25,2.21.13,4.42.29,6.63.39,1.89.08,3.79.03,5.68.13,2.18.11,4.35.33,6.59.51-1.26,4.44-4.84,7.8-8.9,6.88,1.53-.6,3-1.08,4.47-1.79,1.58-.76,2.6-2.09,3.2-3.94-2.13-.64-4.25-.9-6.39-.62-2.61.34-2.5.38-2.14,3.03.4,3,1.12,6.08-.3,8.98-1.15,2.34-2.65,4.41-5.48,4.96-1.18.23-1.97-.48-3.11-.73-.67-.15-1.45-.5-.35-.85.28-.02.6-.15.84-.05,2.94,1.15,5.22.13,6.82-2.62,1.61-2.76,1.62-5.48.67-8.39-.32-.97-.44-2-.61-3.02-.14-.88-.64-1.36-1.49-1.39-2.33-.06-5.17.31-7.5.27-.17,0,.18-.45,0-.49Z"/>
  <path class="cls-7" d="m43.05,56.53c-.68-.24-1.14-.87-1.13-1.59.02-2.52,1.36-5.4.11-7.63-.41-.74-.94-1.76.73-1.49.23.06.46.13.68.19-.03,2.63,0,5.26-.1,7.88-.05,1.15.16,1.69,1.45,1.74,3.03.12,5.59-1.51,6.64-4.39.1-.27.41-.47.63-.7.19.27.6.64.53.8-.46,1.07-.79,2.34-1.59,3.07-1.87,1.73-4.39,2.02-6.8,2.33-.35.04-.73-.06-1.15-.22Z"/>
  <path class="cls-2" d="m36.66,45.51c.46,3.41.24,6.78-.6,9.99-.32,1.23-1.04,2.24-1.62,3.29-.13.23-.45.46-.68.56-.87.65-.99.24-.59-.23.12-.26.7-.81.85-1.02,2.12-2.92,2.35-6.7,2.13-10.69-.02-.42-.09-.86-.05-1.27.03-.3.21-.57.32-.85.13-.3.2-.11.25.22Z"/>
  <path class="cls-2" d="m77.59,41.94c1.84.04,3.79,2.25,3.71,4.21-.07,1.53-1.65,2.62-3.75,2.57-1.62-.04-2.64-1.67-2.59-4.15.03-1.76.94-2.67,2.63-2.63Zm-1.48,2.79c.29,2.16.83,2.66,3.15,2.58.34-.01.89-.65.93-1.05.16-1.51-1.47-3.36-2.81-3.11-.51.1-.85,1.03-1.27,1.57Z"/>
  <path class="cls-1" d="m58.5,60.08c.54-.39,1.02-.92,1.62-1.13,1.67-.6,2.44-1.87,2.74-3.48.3-1.61.51-3.24.69-4.88.1-.89-.01-1.79.08-2.68.04-.41.34-.79.52-1.19.26.41.75.82.74,1.23-.03,1.51-.18,3.02-.38,4.52-.19,1.4-.35,2.84-.82,4.15-.64,1.75-2.04,2.92-3.7,3.71-.36.17-.82.15-1.24.22-.08-.16-.16-.31-.24-.47Z"/>
  <path class="cls-6" d="m71.27,47.79c.46,4.32,2.54,7.81,5.48,10.88-.08.07-.17.14-.25.21-.23-.07-.53-.07-.67-.22-1.82-1.99-4.07-3.66-4.79-6.49-.24-.94-.62-1.85-.75-2.79-.07-.52.22-1.1.36-1.66.21.02.41.05.62.07Z"/>
</svg>