<?xml version="1.0" encoding="UTF-8"?>
<svg id="Layer_1" data-name="Layer 1" xmlns="http://www.w3.org/2000/svg" viewBox="0 0 253 225.35">
  <defs>
    <style>
      .cls-1 {
        stroke-width: 0px;
      }
    </style>
  </defs>
  <path class="cls-1" d="m23.58,225.35c-8.51,0-16.14-4.4-20.39-11.77-2.09-3.61-3.19-7.69-3.19-11.77s1.1-8.16,3.19-11.77L106.11,11.77c3.7-6.4,9.99-10.62,17.25-11.57,1.03-.13,2.09-.2,3.14-.2,8.51,0,16.14,4.4,20.39,11.77l102.92,178.26c2.09,3.61,3.19,7.69,3.19,11.77s-1.1,8.16-3.19,11.77c-4.26,7.37-11.88,11.77-20.39,11.77H23.58ZM126.5,4.51c-6.88,0-13.05,3.56-16.49,9.52L7.09,192.29c-1.69,2.93-2.58,6.22-2.58,9.52s.89,6.59,2.58,9.52c3.44,5.96,9.61,9.52,16.49,9.52h205.83c6.88,0,13.05-3.56,16.49-9.52,1.69-2.93,2.58-6.22,2.58-9.52s-.89-6.59-2.58-9.52L142.99,14.03c-3.44-5.96-9.61-9.52-16.49-9.52Zm-15.54,194.57v-30.2h31.09v30.2h-31.09Zm26.58-4.51v-21.18h-22.07v21.18h22.07Zm-19.57-31.76l-7.63-63.26v-35.56h32.33v35.64s-7.45,63.18-7.45,63.18h-17.25Zm13.24-4.51l6.95-58.98v-30.83h-23.31v30.82l7.12,58.98h9.24Z"/>
  <path class="cls-1" d="m248.51,190.78L145.59,12.52c-3.99-6.9-11.12-11.02-19.09-11.02-1,0-1.98.06-2.95.19-6.76.88-12.66,4.79-16.15,10.83L4.49,190.78c-1.99,3.45-2.99,7.24-2.99,11.02s1,7.57,2.99,11.02c3.99,6.9,11.12,11.02,19.09,11.02h205.83c7.97,0,15.11-4.12,19.09-11.02,1.99-3.45,2.99-7.24,2.99-11.02s-1-7.57-2.99-11.02Zm-1.31,21.29c-3.71,6.43-10.36,10.27-17.79,10.27H23.58c-7.43,0-14.08-3.84-17.79-10.27-1.86-3.22-2.78-6.74-2.78-10.27s.93-7.05,2.78-10.27L108.71,13.28c3.71-6.43,10.36-10.27,17.79-10.27s14.08,3.84,17.79,10.27l102.92,178.26c1.86,3.22,2.78,6.74,2.78,10.27s-.93,7.05-2.78,10.27Zm-134.75-14.5h28.09v-27.2h-28.09v27.2Zm1.51-25.69h25.07v24.18h-25.07v-24.18Zm-2.13-72.43l7.46,61.85h14.58l7.28-61.76v-34.06s-29.33,0-29.33,0v33.97Zm1.51-32.46h26.31v32.41l-7.12,60.39h-11.91l-7.29-60.39v-32.41Z"/>
</svg>