<?xml version="1.0" encoding="UTF-8"?>
<svg id="Layer_2" data-name="Layer 2" xmlns="http://www.w3.org/2000/svg" viewBox="0 0 60 60">
  <defs>
    <style>
      .cls-1 {
        stroke-width: 0px;
      }
    </style>
  </defs>
  <g id="DECALS">
    <g>
      <path class="cls-1" d="m55.92,1.33c1.51,0,2.75,1.23,2.75,2.75v43.49c0,.44-.08,1.19-.63,1.19-.25,0-.57-.11-.9-.3l-23.82-13.75c-1.53-.88-2.87-3.2-2.87-4.97V4.08c0-1.52,1.23-2.75,2.75-2.75h22.73m0-1.33h-22.73c-2.24,0-4.08,1.84-4.08,4.08v25.66c0,2.24,1.59,5,3.53,6.12l23.82,13.75c.56.32,1.1.48,1.57.48,1.16,0,1.96-.92,1.96-2.52V4.08c0-2.25-1.84-4.08-4.08-4.08h0Z"/>
      <path class="cls-1" d="m18.34,1.33c1.51,0,2.75,1.23,2.75,2.75v25.66c0,1.76-1.34,4.08-2.87,4.97l-15.35,8.86c-.34.19-.66.3-.9.3-.55,0-.63-.74-.63-1.19V4.08c0-1.52,1.23-2.75,2.75-2.75h14.26m0-1.33H4.08C1.84,0,0,1.84,0,4.08v38.6c0,1.59.8,2.52,1.96,2.52.47,0,1.01-.15,1.57-.48l15.35-8.86c1.94-1.12,3.53-3.88,3.53-6.12V4.08c0-2.25-1.84-4.08-4.08-4.08h0Z"/>
      <path class="cls-1" d="m25.76,43.06c1.09,0,2.14.24,2.87.66l25.87,14.94H4.08c-2.75,0-2.75-.45-2.75-.96,0-1.39.83-2.01,2.87-3.18l18.69-10.79c.73-.42,1.77-.66,2.87-.66m0-1.33c-1.28,0-2.56.28-3.53.84L3.53,53.36c-1.94,1.12-3.53,2.08-3.53,4.34,0,2.08,1.84,2.3,4.08,2.3h51.32c2.24,0,2.49-.92.55-2.04l-26.65-15.39c-.97-.56-2.25-.84-3.53-.84h0Z"/>
    </g>
  </g>
</svg>