<?xml version="1.0" encoding="UTF-8"?>
<svg id="Layer_2" data-name="Layer 2" xmlns="http://www.w3.org/2000/svg" viewBox="0 0 60 60">
  <defs>
    <style>
      .cls-1 {
        stroke-width: 0px;
      }
    </style>
  </defs>
  <g id="DECALS">
    <g>
      <path class="cls-1" d="m1.96,31.57c.25,0,.57.11.9.3l20.26,11.7c1.53.88,2.87,3.2,2.87,4.97v7.38c0,1.51-1.23,2.75-2.75,2.75H4.08c-1.51,0-2.75-1.23-2.75-2.75v-23.16c0-.44.08-1.19.63-1.19m0-1.33c-1.16,0-1.96.92-1.96,2.52v23.16c0,2.24,1.84,4.08,4.08,4.08h19.17c2.24,0,4.08-1.84,4.08-4.08v-7.38c0-2.24-1.59-5-3.53-6.12L3.53,30.72c-.56-.33-1.1-.48-1.57-.48h0Z"/>
      <path class="cls-1" d="m55.92,1.33c1.52,0,2.75,1.23,2.75,2.75v14.06c0,1.76-1.34,4.08-2.87,4.96l-22.93,13.24c-.73.42-1.77.66-2.87.66s-2.14-.24-2.87-.66L4.2,23.1c-1.53-.88-2.87-3.2-2.87-4.96V4.08c0-1.52,1.23-2.75,2.75-2.75h51.84m0-1.33H4.08C1.84,0,0,1.84,0,4.08v14.06c0,2.24,1.59,5,3.53,6.12l22.93,13.24c.97.56,2.25.84,3.53.84s2.56-.28,3.53-.84l22.93-13.24c1.94-1.12,3.53-3.88,3.53-6.12V4.08c0-2.25-1.84-4.08-4.08-4.08h0Z"/>
      <path class="cls-1" d="m58.03,31.57c.55,0,.63.74.63,1.19v23.16c0,1.51-1.23,2.75-2.75,2.75h-19.17c-1.52,0-2.75-1.23-2.75-2.75v-7.38c0-1.76,1.34-4.08,2.87-4.97l20.26-11.7c.34-.19.66-.3.9-.3m0-1.33c-.47,0-1.01.15-1.57.48l-20.26,11.7c-1.94,1.12-3.53,3.88-3.53,6.12v7.38c0,2.24,1.84,4.08,4.08,4.08h19.17c2.25,0,4.08-1.84,4.08-4.08v-23.16c0-1.59-.8-2.52-1.96-2.52h0Z"/>
    </g>
  </g>
</svg>