<?xml version="1.0" encoding="UTF-8"?>
<svg id="Layer_2" data-name="Layer 2" xmlns="http://www.w3.org/2000/svg" viewBox="0 0 60 60">
  <defs>
    <style>
      .cls-1 {
        stroke-width: 0px;
      }
    </style>
  </defs>
  <g id="DECALS">
    <g>
      <path class="cls-1" d="m10.05,15.67c1.09,0,2.14.24,2.87.66l25.98,15c1.53.88,2.87,3.2,2.87,4.96v19.62c0,1.51-1.23,2.75-2.75,2.75H4.08c-1.51,0-2.75-1.23-2.75-2.75V23.02c0-1.76,1.34-4.08,2.87-4.96l2.98-1.72c.73-.42,1.78-.66,2.87-.66m0-1.33c-1.28,0-2.56.28-3.53.84l-2.98,1.72c-1.94,1.12-3.53,3.88-3.53,6.12v32.89c0,2.24,1.84,4.08,4.08,4.08h34.93c2.24,0,4.08-1.84,4.08-4.08v-19.62c0-2.24-1.59-5-3.53-6.12L13.58,15.18c-.97-.56-2.25-.84-3.53-.84h0Z"/>
      <path class="cls-1" d="m55.92,1.33c1.51,0,2.75,1.23,2.75,2.75v10.78c0,1.76-1.34,4.08-2.87,4.96l-7.38,4.26c-.73.42-1.78.66-2.87.66s-2.14-.24-2.87-.66l-25.98-14.99c-1.53-.88-2.87-3.2-2.87-4.97v-.04c0-1.51,1.23-2.75,2.75-2.75h39.32m0-1.33H16.59c-2.24,0-4.08,1.84-4.08,4.08v.04c0,2.24,1.59,5,3.53,6.12l25.98,15c.97.56,2.25.84,3.53.84s2.56-.28,3.53-.84l7.38-4.26c1.94-1.12,3.53-3.88,3.53-6.12V4.08c0-2.24-1.84-4.08-4.08-4.08h0Z"/>
      <path class="cls-1" d="m58.03,28.2c.55,0,.63.74.63,1.18v26.53c0,1.51-1.23,2.75-2.75,2.75h-3.82c-1.51,0-2.75-1.23-2.75-2.75v-19.62c0-1.76,1.34-4.08,2.87-4.96l4.92-2.84c.33-.19.66-.3.9-.3m0-1.33c-.47,0-1.01.15-1.57.48l-4.91,2.84c-1.94,1.12-3.53,3.88-3.53,6.12v19.62c0,2.24,1.84,4.08,4.08,4.08h3.82c2.24,0,4.08-1.84,4.08-4.08v-26.53c0-1.59-.8-2.52-1.96-2.52h0Z"/>
    </g>
  </g>
</svg>