<?xml version="1.0" encoding="UTF-8"?>
<svg id="Layer_2" data-name="Layer 2" xmlns="http://www.w3.org/2000/svg" viewBox="0 0 60 60">
  <defs>
    <style>
      .cls-1 {
        stroke-width: 0px;
      }
    </style>
  </defs>
  <g id="DECALS">
    <g>
      <path class="cls-1" d="m41.09,28.4c1.09,0,2.14.24,2.87.66l11.84,6.83c1.53.88,2.87,3.2,2.87,4.96v15.06c0,1.51-1.23,2.75-2.75,2.75H4.08c-1.51,0-2.75-1.23-2.75-2.75v-2.25c0-1.76,1.34-4.08,2.87-4.96l34.03-19.65c.73-.42,1.77-.66,2.87-.66m0-1.33c-1.28,0-2.56.28-3.53.84L3.53,47.55c-1.94,1.12-3.53,3.88-3.53,6.12v2.25c0,2.24,1.84,4.08,4.08,4.08h51.84c2.24,0,4.08-1.84,4.08-4.08v-15.06c0-2.24-1.59-5-3.53-6.12l-11.84-6.83c-.97-.56-2.25-.84-3.53-.84h0Z"/>
      <path class="cls-1" d="m55.92,1.33c1.51,0,2.75,1.23,2.75,2.75v19.97c0,.44-.08,1.19-.63,1.19-.25,0-.57-.1-.9-.3l-8.49-4.9c-1.53-.88-2.87-3.2-2.87-4.97V4.08c0-1.52,1.23-2.75,2.75-2.75h7.4m0-1.33h-7.4c-2.25,0-4.08,1.84-4.08,4.08v10.99c0,2.25,1.59,5,3.53,6.12l8.49,4.9c.56.32,1.1.48,1.57.48,1.16,0,1.96-.92,1.96-2.52V4.08c0-2.25-1.84-4.08-4.08-4.08h0Z"/>
      <path class="cls-1" d="m33.67,1.33c1.51,0,2.75,1.23,2.75,2.75v10.99c0,1.76-1.34,4.08-2.87,4.97L2.87,37.75c-.34.19-.66.3-.9.3-.55,0-.63-.74-.63-1.18V4.08c0-1.52,1.23-2.75,2.75-2.75h29.59m0-1.33H4.08C1.84,0,0,1.84,0,4.08v32.78c0,1.59.8,2.52,1.96,2.52.47,0,1.01-.15,1.57-.48l30.68-17.72c1.94-1.12,3.53-3.87,3.53-6.12V4.08c0-2.25-1.84-4.08-4.08-4.08h0Z"/>
    </g>
  </g>
</svg>