<?xml version="1.0" encoding="UTF-8"?>
<svg id="Layer_2" data-name="Layer 2" xmlns="http://www.w3.org/2000/svg" viewBox="0 0 60 60">
  <defs>
    <style>
      .cls-1 {
        stroke-width: 0px;
      }
    </style>
  </defs>
  <g id="DECALS">
    <g>
      <path class="cls-1" d="m57.04,17.97c.99,0,1.63.72,1.63,1.83v36.13c0,1.51-1.23,2.75-2.75,2.75H17.94c-.66,0-1.2-.23-1.51-.64-.31-.41-.39-.99-.22-1.63l7.1-26.51c.46-1.7,2.35-3.6,4.05-4.05l29.04-7.78c.22-.06.43-.09.64-.09m0-1.33c-.31,0-.64.04-.98.13l-29.04,7.78c-2.17.58-4.42,2.83-5,5l-7.1,26.51c-.58,2.17.78,3.94,3.02,3.94h37.97c2.24,0,4.08-1.84,4.08-4.08V19.79c0-1.89-1.26-3.16-2.96-3.16h0Z"/>
      <path class="cls-1" d="m1.41,10.74c.13.08.31.21.54.44l10.05,10.05c1.25,1.25,1.94,3.83,1.48,5.54l-7.76,28.94c-.45,1.69-1.82,2.95-2.75,2.95-.78,0-1.65-1.17-1.65-2.75V11.43c0-.32.04-.54.07-.69m-.18-1.42c-.74,0-1.23.73-1.23,2.11v44.49c0,2.24,1.34,4.08,2.98,4.08s3.45-1.77,4.03-3.94l7.75-28.94c.58-2.17-.24-5.24-1.83-6.83L2.88,10.24c-.62-.62-1.19-.91-1.66-.91h0Z"/>
      <path class="cls-1" d="m55.92,1.33c1.51,0,2.75,1.15,2.75,2.57,0,1.53-1.38,3.25-2.95,3.67l-31.47,8.43c-.35.09-.74.14-1.17.14-1.61,0-3.41-.67-4.36-1.62L6.12,1.94c-.22-.23-.36-.41-.44-.54.14-.04.37-.07.69-.07h49.54m0-1.33H6.38c-2.24,0-2.78,1.3-1.2,2.89l12.58,12.58c1.24,1.24,3.39,2.02,5.31,2.02.53,0,1.05-.06,1.52-.19l31.47-8.43c2.17-.58,3.94-2.81,3.94-4.96s-1.84-3.9-4.08-3.9h0Z"/>
    </g>
  </g>
</svg>